<svg width="2090" height="1549" xmlns="http://www.w3.org/2000/svg" xmlns:xlink="http://www.w3.org/1999/xlink" xml:space="preserve" overflow="hidden"><defs><clipPath id="clip0"><rect x="293" y="142" width="2090" height="1549"/></clipPath><clipPath id="clip1"><rect x="293" y="142" width="2090" height="1549"/></clipPath></defs><g clip-path="url(#clip0)" transform="translate(-293 -142)"><g clip-path="url(#clip1)"><rect x="298" y="147" width="2081" height="1542" fill="#FFFFFF" fill-opacity="1"/><g><path d="M504.5 1262.5 2140.5 1262.5M504.5 1144.5 2140.5 1144.5M504.5 1026.5 2140.5 1026.5M504.5 907.5 2140.5 907.5M504.5 789.5 2140.5 789.5M504.5 671.5 2140.5 671.5M504.5 553.5 2140.5 553.5M504.5 434.5 2140.5 434.5M504.5 316.5 2140.5 316.5" stroke="#D9D9D9" stroke-width="3.4375" stroke-linecap="butt" stroke-linejoin="round" stroke-miterlimit="10" stroke-opacity="1" fill="none" fill-rule="nonzero"/></g><g><path d="M668.5 316.5 668.5 1380.5M831.5 316.5 831.5 1380.5M995.5 316.5 995.5 1380.5M1158.5 316.5 1158.5 1380.5M1322.5 316.5 1322.5 1380.5M1486.5 316.5 1486.5 1380.5M1649.5 316.5 1649.5 1380.5M1813.5 316.5 1813.5 1380.5M1976.5 316.5 1976.5 1380.5M2140.5 316.5 2140.5 1380.5" stroke="#D9D9D9" stroke-width="3.4375" stroke-linecap="butt" stroke-linejoin="round" stroke-miterlimit="10" stroke-opacity="1" fill="none" fill-rule="nonzero"/></g><g><path d="M0 0 0.000360892 1064" stroke="#BFBFBF" stroke-width="3.4375" stroke-linecap="butt" stroke-linejoin="round" stroke-miterlimit="10" stroke-opacity="1" fill="none" fill-rule="evenodd" transform="matrix(1 0 0 -1 2140.5 1380.5)"/></g><g><path d="M2140.5 1380.5 2153.5 1380.5M2140.5 1262.5 2153.5 1262.5M2140.5 1144.5 2153.5 1144.5M2140.5 1026.5 2153.5 1026.5M2140.5 907.5 2153.5 907.5M2140.5 789.5 2153.5 789.5M2140.5 671.5 2153.5 671.5M2140.5 553.5 2153.5 553.5M2140.5 434.5 2153.5 434.5M2140.5 316.5 2153.5 316.5" stroke="#BFBFBF" stroke-width="3.4375" stroke-linecap="butt" stroke-linejoin="round" stroke-miterlimit="10" stroke-opacity="1" fill="none" fill-rule="nonzero"/></g><g><path d="M0 0 0.000360892 1064" stroke="#BFBFBF" stroke-width="3.4375" stroke-linecap="butt" stroke-linejoin="round" stroke-miterlimit="10" stroke-opacity="1" fill="none" fill-rule="evenodd" transform="matrix(1 0 0 -1 504.5 1380.5)"/></g><g><path d="M504.5 1380.5 2140.5 1380.5" stroke="#BFBFBF" stroke-width="3.4375" stroke-linecap="butt" stroke-linejoin="round" stroke-miterlimit="10" stroke-opacity="1" fill="none" fill-rule="evenodd"/></g><g><path d="M504.5 789.5 2058.5 789.5" stroke="#FFC000" stroke-width="9.16667" stroke-linecap="round" stroke-linejoin="round" stroke-miterlimit="10" stroke-opacity="1" fill="none" fill-rule="nonzero"/></g><g><path d="M504.5 823.5 2058.5 823.5" stroke="#00B0F0" stroke-width="9.16667" stroke-linecap="round" stroke-linejoin="round" stroke-miterlimit="10" stroke-opacity="1" fill="none" fill-rule="nonzero"/></g><g><path d="M597.416 701.166C597.416 707.241 592.492 712.166 586.417 712.166 580.342 712.166 575.417 707.241 575.417 701.166 575.417 695.091 580.342 690.167 586.417 690.167 592.492 690.167 597.416 695.091 597.416 701.166Z" stroke="#156082" stroke-width="3.4375" stroke-linecap="butt" stroke-linejoin="round" stroke-miterlimit="10" stroke-opacity="1" fill="#156082" fill-rule="nonzero" fill-opacity="1"/><path d="M679.416 767.166C679.416 773.241 674.492 778.166 668.417 778.166 662.342 778.166 657.417 773.241 657.417 767.166 657.417 761.091 662.342 756.167 668.417 756.167 674.492 756.167 679.416 761.091 679.416 767.166Z" stroke="#156082" stroke-width="3.4375" stroke-linecap="butt" stroke-linejoin="round" stroke-miterlimit="10" stroke-opacity="1" fill="#156082" fill-rule="nonzero" fill-opacity="1"/><path d="M761.416 667.166C761.416 673.241 756.491 678.166 750.417 678.166 744.342 678.166 739.417 673.241 739.417 667.166 739.417 661.091 744.342 656.167 750.417 656.167 756.491 656.167 761.416 661.091 761.416 667.166Z" stroke="#156082" stroke-width="3.4375" stroke-linecap="butt" stroke-linejoin="round" stroke-miterlimit="10" stroke-opacity="1" fill="#156082" fill-rule="nonzero" fill-opacity="1"/><path d="M842.416 767.166C842.416 773.241 837.492 778.166 831.417 778.166 825.342 778.166 820.417 773.241 820.417 767.166 820.417 761.091 825.342 756.167 831.417 756.167 837.492 756.167 842.416 761.091 842.416 767.166Z" stroke="#156082" stroke-width="3.4375" stroke-linecap="butt" stroke-linejoin="round" stroke-miterlimit="10" stroke-opacity="1" fill="#156082" fill-rule="nonzero" fill-opacity="1"/><path d="M924.416 973.166C924.416 979.241 919.492 984.166 913.417 984.166 907.342 984.166 902.417 979.241 902.417 973.166 902.417 967.091 907.342 962.167 913.417 962.167 919.492 962.167 924.416 967.091 924.416 973.166Z" stroke="#156082" stroke-width="3.4375" stroke-linecap="butt" stroke-linejoin="round" stroke-miterlimit="10" stroke-opacity="1" fill="#156082" fill-rule="nonzero" fill-opacity="1"/><path d="M1006.42 939.166C1006.42 945.241 1001.49 950.166 995.417 950.166 989.342 950.166 984.417 945.241 984.417 939.166 984.417 933.091 989.342 928.167 995.417 928.167 1001.49 928.167 1006.42 933.091 1006.42 939.166Z" stroke="#156082" stroke-width="3.4375" stroke-linecap="butt" stroke-linejoin="round" stroke-miterlimit="10" stroke-opacity="1" fill="#156082" fill-rule="nonzero" fill-opacity="1"/><path d="M1088.42 597.166C1088.42 603.241 1083.49 608.166 1077.42 608.166 1071.34 608.166 1066.42 603.241 1066.42 597.166 1066.42 591.091 1071.34 586.166 1077.42 586.166 1083.49 586.166 1088.42 591.091 1088.42 597.166Z" stroke="#156082" stroke-width="3.4375" stroke-linecap="butt" stroke-linejoin="round" stroke-miterlimit="10" stroke-opacity="1" fill="#156082" fill-rule="nonzero" fill-opacity="1"/><path d="M1169.42 429.166C1169.42 435.241 1164.49 440.166 1158.42 440.166 1152.34 440.166 1147.42 435.241 1147.42 429.166 1147.42 423.091 1152.34 418.167 1158.42 418.167 1164.49 418.167 1169.42 423.091 1169.42 429.166Z" stroke="#156082" stroke-width="3.4375" stroke-linecap="butt" stroke-linejoin="round" stroke-miterlimit="10" stroke-opacity="1" fill="#156082" fill-rule="nonzero" fill-opacity="1"/><path d="M1251.42 560.166C1251.42 566.241 1246.49 571.166 1240.42 571.166 1234.34 571.166 1229.42 566.241 1229.42 560.166 1229.42 554.091 1234.34 549.167 1240.42 549.167 1246.49 549.167 1251.42 554.091 1251.42 560.166Z" stroke="#156082" stroke-width="3.4375" stroke-linecap="butt" stroke-linejoin="round" stroke-miterlimit="10" stroke-opacity="1" fill="#156082" fill-rule="nonzero" fill-opacity="1"/><path d="M1333.42 697.166C1333.42 703.241 1328.49 708.166 1322.42 708.166 1316.34 708.166 1311.42 703.241 1311.42 697.166 1311.42 691.091 1316.34 686.167 1322.42 686.167 1328.49 686.167 1333.42 691.091 1333.42 697.166Z" stroke="#156082" stroke-width="3.4375" stroke-linecap="butt" stroke-linejoin="round" stroke-miterlimit="10" stroke-opacity="1" fill="#156082" fill-rule="nonzero" fill-opacity="1"/><path d="M1415.42 909.166C1415.42 915.241 1410.49 920.166 1404.42 920.166 1398.34 920.166 1393.42 915.241 1393.42 909.166 1393.42 903.091 1398.34 898.167 1404.42 898.167 1410.49 898.167 1415.42 903.091 1415.42 909.166Z" stroke="#156082" stroke-width="3.4375" stroke-linecap="butt" stroke-linejoin="round" stroke-miterlimit="10" stroke-opacity="1" fill="#156082" fill-rule="nonzero" fill-opacity="1"/><path d="M1497.42 1052.17C1497.42 1058.24 1492.49 1063.17 1486.42 1063.17 1480.34 1063.17 1475.42 1058.24 1475.42 1052.17 1475.42 1046.09 1480.34 1041.17 1486.42 1041.17 1492.49 1041.17 1497.42 1046.09 1497.42 1052.17Z" stroke="#156082" stroke-width="3.4375" stroke-linecap="butt" stroke-linejoin="round" stroke-miterlimit="10" stroke-opacity="1" fill="#156082" fill-rule="nonzero" fill-opacity="1"/><path d="M1578.42 1018.17C1578.42 1024.24 1573.49 1029.17 1567.42 1029.17 1561.34 1029.17 1556.42 1024.24 1556.42 1018.17 1556.42 1012.09 1561.34 1007.17 1567.42 1007.17 1573.49 1007.17 1578.42 1012.09 1578.42 1018.17Z" stroke="#156082" stroke-width="3.4375" stroke-linecap="butt" stroke-linejoin="round" stroke-miterlimit="10" stroke-opacity="1" fill="#156082" fill-rule="nonzero" fill-opacity="1"/><path d="M1660.42 977.166C1660.42 983.241 1655.49 988.166 1649.42 988.166 1643.34 988.166 1638.42 983.241 1638.42 977.166 1638.42 971.091 1643.34 966.167 1649.42 966.167 1655.49 966.167 1660.42 971.091 1660.42 977.166Z" stroke="#156082" stroke-width="3.4375" stroke-linecap="butt" stroke-linejoin="round" stroke-miterlimit="10" stroke-opacity="1" fill="#156082" fill-rule="nonzero" fill-opacity="1"/><path d="M1742.42 876.166C1742.42 882.241 1737.49 887.166 1731.42 887.166 1725.34 887.166 1720.42 882.241 1720.42 876.166 1720.42 870.091 1725.34 865.167 1731.42 865.167 1737.49 865.167 1742.42 870.091 1742.42 876.166Z" stroke="#156082" stroke-width="3.4375" stroke-linecap="butt" stroke-linejoin="round" stroke-miterlimit="10" stroke-opacity="1" fill="#156082" fill-rule="nonzero" fill-opacity="1"/><path d="M1824.42 1086.17C1824.42 1092.24 1819.49 1097.17 1813.42 1097.17 1807.34 1097.17 1802.42 1092.24 1802.42 1086.17 1802.42 1080.09 1807.34 1075.17 1813.42 1075.17 1819.49 1075.17 1824.42 1080.09 1824.42 1086.17Z" stroke="#156082" stroke-width="3.4375" stroke-linecap="butt" stroke-linejoin="round" stroke-miterlimit="10" stroke-opacity="1" fill="#156082" fill-rule="nonzero" fill-opacity="1"/><path d="M1905.42 872.166C1905.42 878.241 1900.49 883.166 1894.42 883.166 1888.34 883.166 1883.42 878.241 1883.42 872.166 1883.42 866.091 1888.34 861.166 1894.42 861.166 1900.49 861.166 1905.42 866.091 1905.42 872.166Z" stroke="#156082" stroke-width="3.4375" stroke-linecap="butt" stroke-linejoin="round" stroke-miterlimit="10" stroke-opacity="1" fill="#156082" fill-rule="nonzero" fill-opacity="1"/><path d="M1987.42 876.166C1987.42 882.241 1982.49 887.166 1976.42 887.166 1970.34 887.166 1965.42 882.241 1965.42 876.166 1965.42 870.091 1970.34 865.167 1976.42 865.167 1982.49 865.167 1987.42 870.091 1987.42 876.166Z" stroke="#156082" stroke-width="3.4375" stroke-linecap="butt" stroke-linejoin="round" stroke-miterlimit="10" stroke-opacity="1" fill="#156082" fill-rule="nonzero" fill-opacity="1"/><path d="M2069.42 876.166C2069.42 882.241 2064.49 887.166 2058.42 887.166 2052.34 887.166 2047.42 882.241 2047.42 876.166 2047.42 870.091 2052.34 865.167 2058.42 865.167 2064.49 865.167 2069.42 870.091 2069.42 876.166Z" stroke="#156082" stroke-width="3.4375" stroke-linecap="butt" stroke-linejoin="round" stroke-miterlimit="10" stroke-opacity="1" fill="#156082" fill-rule="nonzero" fill-opacity="1"/></g><g><path d="M597.416 480.166C597.416 486.241 592.492 491.166 586.417 491.166 580.342 491.166 575.417 486.241 575.417 480.166 575.417 474.091 580.342 469.167 586.417 469.167 592.492 469.167 597.416 474.091 597.416 480.166Z" stroke="#E97132" stroke-width="3.4375" stroke-linecap="butt" stroke-linejoin="round" stroke-miterlimit="10" stroke-opacity="1" fill="#E97132" fill-rule="nonzero" fill-opacity="1"/><path d="M679.416 403.166C679.416 409.241 674.492 414.166 668.417 414.166 662.342 414.166 657.417 409.241 657.417 403.166 657.417 397.091 662.342 392.167 668.417 392.167 674.492 392.167 679.416 397.091 679.416 403.166Z" stroke="#E97132" stroke-width="3.4375" stroke-linecap="butt" stroke-linejoin="round" stroke-miterlimit="10" stroke-opacity="1" fill="#E97132" fill-rule="nonzero" fill-opacity="1"/><path d="M761.416 389.166C761.416 395.241 756.491 400.166 750.417 400.166 744.342 400.166 739.417 395.241 739.417 389.166 739.417 383.091 744.342 378.167 750.417 378.167 756.491 378.167 761.416 383.091 761.416 389.166Z" stroke="#E97132" stroke-width="3.4375" stroke-linecap="butt" stroke-linejoin="round" stroke-miterlimit="10" stroke-opacity="1" fill="#E97132" fill-rule="nonzero" fill-opacity="1"/><path d="M842.416 486.166C842.416 492.241 837.492 497.166 831.417 497.166 825.342 497.166 820.417 492.241 820.417 486.166 820.417 480.091 825.342 475.166 831.417 475.166 837.492 475.166 842.416 480.091 842.416 486.166Z" stroke="#E97132" stroke-width="3.4375" stroke-linecap="butt" stroke-linejoin="round" stroke-miterlimit="10" stroke-opacity="1" fill="#E97132" fill-rule="nonzero" fill-opacity="1"/><path d="M924.416 463.166C924.416 469.241 919.492 474.166 913.417 474.166 907.342 474.166 902.417 469.241 902.417 463.166 902.417 457.091 907.342 452.166 913.417 452.166 919.492 452.166 924.416 457.091 924.416 463.166Z" stroke="#E97132" stroke-width="3.4375" stroke-linecap="butt" stroke-linejoin="round" stroke-miterlimit="10" stroke-opacity="1" fill="#E97132" fill-rule="nonzero" fill-opacity="1"/><path d="M1006.42 469.166C1006.42 475.241 1001.49 480.166 995.417 480.166 989.342 480.166 984.417 475.241 984.417 469.166 984.417 463.091 989.342 458.167 995.417 458.167 1001.49 458.167 1006.42 463.091 1006.42 469.166Z" stroke="#E97132" stroke-width="3.4375" stroke-linecap="butt" stroke-linejoin="round" stroke-miterlimit="10" stroke-opacity="1" fill="#E97132" fill-rule="nonzero" fill-opacity="1"/><path d="M1088.42 548.166C1088.42 554.241 1083.49 559.166 1077.42 559.166 1071.34 559.166 1066.42 554.241 1066.42 548.166 1066.42 542.091 1071.34 537.167 1077.42 537.167 1083.49 537.167 1088.42 542.091 1088.42 548.166Z" stroke="#E97132" stroke-width="3.4375" stroke-linecap="butt" stroke-linejoin="round" stroke-miterlimit="10" stroke-opacity="1" fill="#E97132" fill-rule="nonzero" fill-opacity="1"/><path d="M1169.42 488.166C1169.42 494.241 1164.49 499.166 1158.42 499.166 1152.34 499.166 1147.42 494.241 1147.42 488.166 1147.42 482.091 1152.34 477.167 1158.42 477.167 1164.49 477.167 1169.42 482.091 1169.42 488.166Z" stroke="#E97132" stroke-width="3.4375" stroke-linecap="butt" stroke-linejoin="round" stroke-miterlimit="10" stroke-opacity="1" fill="#E97132" fill-rule="nonzero" fill-opacity="1"/><path d="M1251.42 518.166C1251.42 524.241 1246.49 529.166 1240.42 529.166 1234.34 529.166 1229.42 524.241 1229.42 518.166 1229.42 512.091 1234.34 507.166 1240.42 507.166 1246.49 507.166 1251.42 512.091 1251.42 518.166Z" stroke="#E97132" stroke-width="3.4375" stroke-linecap="butt" stroke-linejoin="round" stroke-miterlimit="10" stroke-opacity="1" fill="#E97132" fill-rule="nonzero" fill-opacity="1"/><path d="M1333.42 485.166C1333.42 491.241 1328.49 496.166 1322.42 496.166 1316.34 496.166 1311.42 491.241 1311.42 485.166 1311.42 479.091 1316.34 474.166 1322.42 474.166 1328.49 474.166 1333.42 479.091 1333.42 485.166Z" stroke="#E97132" stroke-width="3.4375" stroke-linecap="butt" stroke-linejoin="round" stroke-miterlimit="10" stroke-opacity="1" fill="#E97132" fill-rule="nonzero" fill-opacity="1"/><path d="M1415.42 436.166C1415.42 442.241 1410.49 447.166 1404.42 447.166 1398.34 447.166 1393.42 442.241 1393.42 436.166 1393.42 430.091 1398.34 425.167 1404.42 425.167 1410.49 425.167 1415.42 430.091 1415.42 436.166Z" stroke="#E97132" stroke-width="3.4375" stroke-linecap="butt" stroke-linejoin="round" stroke-miterlimit="10" stroke-opacity="1" fill="#E97132" fill-rule="nonzero" fill-opacity="1"/><path d="M1497.42 404.166C1497.42 410.241 1492.49 415.166 1486.42 415.166 1480.34 415.166 1475.42 410.241 1475.42 404.166 1475.42 398.091 1480.34 393.167 1486.42 393.167 1492.49 393.167 1497.42 398.091 1497.42 404.166Z" stroke="#E97132" stroke-width="3.4375" stroke-linecap="butt" stroke-linejoin="round" stroke-miterlimit="10" stroke-opacity="1" fill="#E97132" fill-rule="nonzero" fill-opacity="1"/><path d="M1578.42 473.166C1578.42 479.241 1573.49 484.166 1567.42 484.166 1561.34 484.166 1556.42 479.241 1556.42 473.166 1556.42 467.091 1561.34 462.167 1567.42 462.167 1573.49 462.167 1578.42 467.091 1578.42 473.166Z" stroke="#E97132" stroke-width="3.4375" stroke-linecap="butt" stroke-linejoin="round" stroke-miterlimit="10" stroke-opacity="1" fill="#E97132" fill-rule="nonzero" fill-opacity="1"/><path d="M1660.42 512.166C1660.42 518.241 1655.49 523.166 1649.42 523.166 1643.34 523.166 1638.42 518.241 1638.42 512.166 1638.42 506.091 1643.34 501.167 1649.42 501.167 1655.49 501.167 1660.42 506.091 1660.42 512.166Z" stroke="#E97132" stroke-width="3.4375" stroke-linecap="butt" stroke-linejoin="round" stroke-miterlimit="10" stroke-opacity="1" fill="#E97132" fill-rule="nonzero" fill-opacity="1"/><path d="M1742.42 515.166C1742.42 521.241 1737.49 526.166 1731.42 526.166 1725.34 526.166 1720.42 521.241 1720.42 515.166 1720.42 509.091 1725.34 504.167 1731.42 504.167 1737.49 504.167 1742.42 509.091 1742.42 515.166Z" stroke="#E97132" stroke-width="3.4375" stroke-linecap="butt" stroke-linejoin="round" stroke-miterlimit="10" stroke-opacity="1" fill="#E97132" fill-rule="nonzero" fill-opacity="1"/><path d="M1824.42 474.166C1824.42 480.241 1819.49 485.166 1813.42 485.166 1807.34 485.166 1802.42 480.241 1802.42 474.166 1802.42 468.091 1807.34 463.166 1813.42 463.166 1819.49 463.166 1824.42 468.091 1824.42 474.166Z" stroke="#E97132" stroke-width="3.4375" stroke-linecap="butt" stroke-linejoin="round" stroke-miterlimit="10" stroke-opacity="1" fill="#E97132" fill-rule="nonzero" fill-opacity="1"/><path d="M1905.42 602.166C1905.42 608.241 1900.49 613.166 1894.42 613.166 1888.34 613.166 1883.42 608.241 1883.42 602.166 1883.42 596.091 1888.34 591.167 1894.42 591.167 1900.49 591.167 1905.42 596.091 1905.42 602.166Z" stroke="#E97132" stroke-width="3.4375" stroke-linecap="butt" stroke-linejoin="round" stroke-miterlimit="10" stroke-opacity="1" fill="#E97132" fill-rule="nonzero" fill-opacity="1"/><path d="M1987.42 628.166C1987.42 634.241 1982.49 639.166 1976.42 639.166 1970.34 639.166 1965.42 634.241 1965.42 628.166 1965.42 622.091 1970.34 617.166 1976.42 617.166 1982.49 617.166 1987.42 622.091 1987.42 628.166Z" stroke="#E97132" stroke-width="3.4375" stroke-linecap="butt" stroke-linejoin="round" stroke-miterlimit="10" stroke-opacity="1" fill="#E97132" fill-rule="nonzero" fill-opacity="1"/><path d="M2069.42 500.166C2069.42 506.241 2064.49 511.166 2058.42 511.166 2052.34 511.166 2047.42 506.241 2047.42 500.166 2047.42 494.091 2052.34 489.167 2058.42 489.167 2064.49 489.167 2069.42 494.091 2069.42 500.166Z" stroke="#E97132" stroke-width="3.4375" stroke-linecap="butt" stroke-linejoin="round" stroke-miterlimit="10" stroke-opacity="1" fill="#E97132" fill-rule="nonzero" fill-opacity="1"/></g><g><text fill="#595959" fill-opacity="1" font-family="Aptos Narrow,Aptos Narrow_MSFontService,sans-serif" font-style="normal" font-variant="normal" font-weight="400" font-stretch="semi-condensed" font-size="41" text-anchor="start" direction="ltr" writing-mode="lr-tb" unicode-bidi="normal" text-decoration="none" transform="matrix(1 0 0 1 2178.34 1391)">0</text></g><g><text fill="#595959" fill-opacity="1" font-family="Aptos Narrow,Aptos Narrow_MSFontService,sans-serif" font-style="normal" font-variant="normal" font-weight="400" font-stretch="semi-condensed" font-size="41" text-anchor="start" direction="ltr" writing-mode="lr-tb" unicode-bidi="normal" text-decoration="none" transform="matrix(1 0 0 1 2178.34 1273)">0.05</text></g><g><text fill="#595959" fill-opacity="1" font-family="Aptos Narrow,Aptos Narrow_MSFontService,sans-serif" font-style="normal" font-variant="normal" font-weight="400" font-stretch="semi-condensed" font-size="41" text-anchor="start" direction="ltr" writing-mode="lr-tb" unicode-bidi="normal" text-decoration="none" transform="matrix(1 0 0 1 2178.34 1155)">0.1</text></g><g><text fill="#595959" fill-opacity="1" font-family="Aptos Narrow,Aptos Narrow_MSFontService,sans-serif" font-style="normal" font-variant="normal" font-weight="400" font-stretch="semi-condensed" font-size="41" text-anchor="start" direction="ltr" writing-mode="lr-tb" unicode-bidi="normal" text-decoration="none" transform="matrix(1 0 0 1 2178.34 1037)">0.15</text></g><g><text fill="#595959" fill-opacity="1" font-family="Aptos Narrow,Aptos Narrow_MSFontService,sans-serif" font-style="normal" font-variant="normal" font-weight="400" font-stretch="semi-condensed" font-size="41" text-anchor="start" direction="ltr" writing-mode="lr-tb" unicode-bidi="normal" text-decoration="none" transform="matrix(1 0 0 1 2178.34 918)">0.2</text></g><g><text fill="#595959" fill-opacity="1" font-family="Aptos Narrow,Aptos Narrow_MSFontService,sans-serif" font-style="normal" font-variant="normal" font-weight="400" font-stretch="semi-condensed" font-size="41" text-anchor="start" direction="ltr" writing-mode="lr-tb" unicode-bidi="normal" text-decoration="none" transform="matrix(1 0 0 1 2178.34 800)">0.25</text></g><g><text fill="#595959" fill-opacity="1" font-family="Aptos Narrow,Aptos Narrow_MSFontService,sans-serif" font-style="normal" font-variant="normal" font-weight="400" font-stretch="semi-condensed" font-size="41" text-anchor="start" direction="ltr" writing-mode="lr-tb" unicode-bidi="normal" text-decoration="none" transform="matrix(1 0 0 1 2178.34 682)">0.3</text></g><g><text fill="#595959" fill-opacity="1" font-family="Aptos Narrow,Aptos Narrow_MSFontService,sans-serif" font-style="normal" font-variant="normal" font-weight="400" font-stretch="semi-condensed" font-size="41" text-anchor="start" direction="ltr" writing-mode="lr-tb" unicode-bidi="normal" text-decoration="none" transform="matrix(1 0 0 1 2178.34 564)">0.35</text></g><g><text fill="#595959" fill-opacity="1" font-family="Aptos Narrow,Aptos Narrow_MSFontService,sans-serif" font-style="normal" font-variant="normal" font-weight="400" font-stretch="semi-condensed" font-size="41" text-anchor="start" direction="ltr" writing-mode="lr-tb" unicode-bidi="normal" text-decoration="none" transform="matrix(1 0 0 1 2178.34 445)">0.4</text></g><g><text fill="#595959" fill-opacity="1" font-family="Aptos Narrow,Aptos Narrow_MSFontService,sans-serif" font-style="normal" font-variant="normal" font-weight="400" font-stretch="semi-condensed" font-size="41" text-anchor="start" direction="ltr" writing-mode="lr-tb" unicode-bidi="normal" text-decoration="none" transform="matrix(1 0 0 1 2178.34 327)">0.45</text></g><g><text fill="#595959" fill-opacity="1" font-family="Aptos Narrow,Aptos Narrow_MSFontService,sans-serif" font-style="normal" font-variant="normal" font-weight="400" font-stretch="semi-condensed" font-size="41" text-anchor="start" direction="ltr" writing-mode="lr-tb" unicode-bidi="normal" text-decoration="none" transform="matrix(1 0 0 1 445.798 1391)">0</text></g><g><text fill="#595959" fill-opacity="1" font-family="Aptos Narrow,Aptos Narrow_MSFontService,sans-serif" font-style="normal" font-variant="normal" font-weight="400" font-stretch="semi-condensed" font-size="41" text-anchor="start" direction="ltr" writing-mode="lr-tb" unicode-bidi="normal" text-decoration="none" transform="matrix(1 0 0 1 424.898 1273)">10</text></g><g><text fill="#595959" fill-opacity="1" font-family="Aptos Narrow,Aptos Narrow_MSFontService,sans-serif" font-style="normal" font-variant="normal" font-weight="400" font-stretch="semi-condensed" font-size="41" text-anchor="start" direction="ltr" writing-mode="lr-tb" unicode-bidi="normal" text-decoration="none" transform="matrix(1 0 0 1 424.898 1155)">20</text></g><g><text fill="#595959" fill-opacity="1" font-family="Aptos Narrow,Aptos Narrow_MSFontService,sans-serif" font-style="normal" font-variant="normal" font-weight="400" font-stretch="semi-condensed" font-size="41" text-anchor="start" direction="ltr" writing-mode="lr-tb" unicode-bidi="normal" text-decoration="none" transform="matrix(1 0 0 1 424.898 1037)">30</text></g><g><text fill="#595959" fill-opacity="1" font-family="Aptos Narrow,Aptos Narrow_MSFontService,sans-serif" font-style="normal" font-variant="normal" font-weight="400" font-stretch="semi-condensed" font-size="41" text-anchor="start" direction="ltr" writing-mode="lr-tb" unicode-bidi="normal" text-decoration="none" transform="matrix(1 0 0 1 424.898 918)">40</text></g><g><text fill="#595959" fill-opacity="1" font-family="Aptos Narrow,Aptos Narrow_MSFontService,sans-serif" font-style="normal" font-variant="normal" font-weight="400" font-stretch="semi-condensed" font-size="41" text-anchor="start" direction="ltr" writing-mode="lr-tb" unicode-bidi="normal" text-decoration="none" transform="matrix(1 0 0 1 424.898 800)">50</text></g><g><text fill="#595959" fill-opacity="1" font-family="Aptos Narrow,Aptos Narrow_MSFontService,sans-serif" font-style="normal" font-variant="normal" font-weight="400" font-stretch="semi-condensed" font-size="41" text-anchor="start" direction="ltr" writing-mode="lr-tb" unicode-bidi="normal" text-decoration="none" transform="matrix(1 0 0 1 424.898 682)">60</text></g><g><text fill="#595959" fill-opacity="1" font-family="Aptos Narrow,Aptos Narrow_MSFontService,sans-serif" font-style="normal" font-variant="normal" font-weight="400" font-stretch="semi-condensed" font-size="41" text-anchor="start" direction="ltr" writing-mode="lr-tb" unicode-bidi="normal" text-decoration="none" transform="matrix(1 0 0 1 424.898 564)">70</text></g><g><text fill="#595959" fill-opacity="1" font-family="Aptos Narrow,Aptos Narrow_MSFontService,sans-serif" font-style="normal" font-variant="normal" font-weight="400" font-stretch="semi-condensed" font-size="41" text-anchor="start" direction="ltr" writing-mode="lr-tb" unicode-bidi="normal" text-decoration="none" transform="matrix(1 0 0 1 424.898 445)">80</text></g><g><text fill="#595959" fill-opacity="1" font-family="Aptos Narrow,Aptos Narrow_MSFontService,sans-serif" font-style="normal" font-variant="normal" font-weight="400" font-stretch="semi-condensed" font-size="41" text-anchor="start" direction="ltr" writing-mode="lr-tb" unicode-bidi="normal" text-decoration="none" transform="matrix(1 0 0 1 424.898 327)">90</text></g><g><text fill="#595959" fill-opacity="1" font-family="Aptos Narrow,Aptos Narrow_MSFontService,sans-serif" font-style="normal" font-variant="normal" font-weight="400" font-stretch="semi-condensed" font-size="41" text-anchor="start" direction="ltr" writing-mode="lr-tb" unicode-bidi="normal" text-decoration="none" transform="matrix(1 0 0 1 494.332 1446)">0</text></g><g><text fill="#595959" fill-opacity="1" font-family="Aptos Narrow,Aptos Narrow_MSFontService,sans-serif" font-style="normal" font-variant="normal" font-weight="400" font-stretch="semi-condensed" font-size="41" text-anchor="start" direction="ltr" writing-mode="lr-tb" unicode-bidi="normal" text-decoration="none" transform="matrix(1 0 0 1 636.979 1446)">100</text></g><g><text fill="#595959" fill-opacity="1" font-family="Aptos Narrow,Aptos Narrow_MSFontService,sans-serif" font-style="normal" font-variant="normal" font-weight="400" font-stretch="semi-condensed" font-size="41" text-anchor="start" direction="ltr" writing-mode="lr-tb" unicode-bidi="normal" text-decoration="none" transform="matrix(1 0 0 1 800.527 1446)">200</text></g><g><text fill="#595959" fill-opacity="1" font-family="Aptos Narrow,Aptos Narrow_MSFontService,sans-serif" font-style="normal" font-variant="normal" font-weight="400" font-stretch="semi-condensed" font-size="41" text-anchor="start" direction="ltr" writing-mode="lr-tb" unicode-bidi="normal" text-decoration="none" transform="matrix(1 0 0 1 964.075 1446)">300</text></g><g><text fill="#595959" fill-opacity="1" font-family="Aptos Narrow,Aptos Narrow_MSFontService,sans-serif" font-style="normal" font-variant="normal" font-weight="400" font-stretch="semi-condensed" font-size="41" text-anchor="start" direction="ltr" writing-mode="lr-tb" unicode-bidi="normal" text-decoration="none" transform="matrix(1 0 0 1 1127.62 1446)">400</text></g><g><text fill="#595959" fill-opacity="1" font-family="Aptos Narrow,Aptos Narrow_MSFontService,sans-serif" font-style="normal" font-variant="normal" font-weight="400" font-stretch="semi-condensed" font-size="41" text-anchor="start" direction="ltr" writing-mode="lr-tb" unicode-bidi="normal" text-decoration="none" transform="matrix(1 0 0 1 1291.17 1446)">500</text></g><g><text fill="#595959" fill-opacity="1" font-family="Aptos Narrow,Aptos Narrow_MSFontService,sans-serif" font-style="normal" font-variant="normal" font-weight="400" font-stretch="semi-condensed" font-size="41" text-anchor="start" direction="ltr" writing-mode="lr-tb" unicode-bidi="normal" text-decoration="none" transform="matrix(1 0 0 1 1454.72 1446)">600</text></g><g><text fill="#595959" fill-opacity="1" font-family="Aptos Narrow,Aptos Narrow_MSFontService,sans-serif" font-style="normal" font-variant="normal" font-weight="400" font-stretch="semi-condensed" font-size="41" text-anchor="start" direction="ltr" writing-mode="lr-tb" unicode-bidi="normal" text-decoration="none" transform="matrix(1 0 0 1 1618.27 1446)">700</text></g><g><text fill="#595959" fill-opacity="1" font-family="Aptos Narrow,Aptos Narrow_MSFontService,sans-serif" font-style="normal" font-variant="normal" font-weight="400" font-stretch="semi-condensed" font-size="41" text-anchor="start" direction="ltr" writing-mode="lr-tb" unicode-bidi="normal" text-decoration="none" transform="matrix(1 0 0 1 1781.81 1446)">800</text></g><g><text fill="#595959" fill-opacity="1" font-family="Aptos Narrow,Aptos Narrow_MSFontService,sans-serif" font-style="normal" font-variant="normal" font-weight="400" font-stretch="semi-condensed" font-size="41" text-anchor="start" direction="ltr" writing-mode="lr-tb" unicode-bidi="normal" text-decoration="none" transform="matrix(1 0 0 1 1945.36 1446)">900</text></g><g><text fill="#595959" fill-opacity="1" font-family="Aptos Narrow,Aptos Narrow_MSFontService,sans-serif" font-style="normal" font-variant="normal" font-weight="400" font-stretch="semi-condensed" font-size="41" text-anchor="start" direction="ltr" writing-mode="lr-tb" unicode-bidi="normal" text-decoration="none" transform="matrix(1 0 0 1 2098.46 1446)">1000</text></g><g><text fill="#595959" fill-opacity="1" font-family="Aptos Narrow,Aptos Narrow_MSFontService,sans-serif" font-style="normal" font-variant="normal" font-weight="400" font-stretch="semi-condensed" font-size="46" text-anchor="start" direction="ltr" writing-mode="lr-tb" unicode-bidi="normal" text-decoration="none" transform="matrix(6.12323e-17 -1 1 6.12323e-17 2308.51 1054)">Registration Error [0</text></g><g><text fill="#595959" fill-opacity="1" font-family="Aptos Narrow,Aptos Narrow_MSFontService,sans-serif" font-style="normal" font-variant="normal" font-weight="400" font-stretch="semi-condensed" font-size="46" text-anchor="start" direction="ltr" writing-mode="lr-tb" unicode-bidi="normal" text-decoration="none" transform="matrix(6.12323e-17 -1 1 6.12323e-17 2308.51 693)">-</text></g><g><text fill="#595959" fill-opacity="1" font-family="Aptos Narrow,Aptos Narrow_MSFontService,sans-serif" font-style="normal" font-variant="normal" font-weight="400" font-stretch="semi-condensed" font-size="46" text-anchor="start" direction="ltr" writing-mode="lr-tb" unicode-bidi="normal" text-decoration="none" transform="matrix(6.12323e-17 -1 1 6.12323e-17 2308.51 679)">1]</text></g><g><text fill="#595959" fill-opacity="1" font-family="Aptos Narrow,Aptos Narrow_MSFontService,sans-serif" font-style="normal" font-variant="normal" font-weight="400" font-stretch="semi-condensed" font-size="46" text-anchor="start" direction="ltr" writing-mode="lr-tb" unicode-bidi="normal" text-decoration="none" transform="matrix(6.12323e-17 -1 1 6.12323e-17 398.2 1156)">Estimated Displacement (meters)</text></g><g><text fill="#595959" fill-opacity="1" font-family="Aptos Narrow,Aptos Narrow_MSFontService,sans-serif" font-style="normal" font-variant="normal" font-weight="400" font-stretch="semi-condensed" font-size="46" text-anchor="start" direction="ltr" writing-mode="lr-tb" unicode-bidi="normal" text-decoration="none" transform="matrix(1 0 0 1 1072.36 1514)">Total Actual Translation (m)</text></g><g><text fill="#595959" fill-opacity="1" font-family="Aptos Narrow,Aptos Narrow_MSFontService,sans-serif" font-style="normal" font-variant="normal" font-weight="400" font-stretch="semi-condensed" font-size="64" text-anchor="start" direction="ltr" writing-mode="lr-tb" unicode-bidi="normal" text-decoration="none" transform="matrix(1 0 0 1 564.976 241)">Fourier</text></g><g><text fill="#595959" fill-opacity="1" font-family="Aptos Narrow,Aptos Narrow_MSFontService,sans-serif" font-style="normal" font-variant="normal" font-weight="400" font-stretch="semi-condensed" font-size="64" text-anchor="start" direction="ltr" writing-mode="lr-tb" unicode-bidi="normal" text-decoration="none" transform="matrix(1 0 0 1 742.878 241)">-</text></g><g><text fill="#595959" fill-opacity="1" font-family="Aptos Narrow,Aptos Narrow_MSFontService,sans-serif" font-style="normal" font-variant="normal" font-weight="400" font-stretch="semi-condensed" font-size="64" text-anchor="start" direction="ltr" writing-mode="lr-tb" unicode-bidi="normal" text-decoration="none" transform="matrix(1 0 0 1 762.517 241)">Mellin Pipeline Translation Estimation (50m intervals)</text></g><g><path d="M739.499 1622.5C739.499 1628.57 734.574 1633.5 728.5 1633.5 722.425 1633.5 717.5 1628.57 717.5 1622.5 717.5 1616.42 722.425 1611.5 728.5 1611.5 734.574 1611.5 739.499 1616.42 739.499 1622.5Z" stroke="#156082" stroke-width="3.4375" stroke-linecap="butt" stroke-linejoin="round" stroke-miterlimit="10" stroke-opacity="1" fill="#156082" fill-rule="nonzero" fill-opacity="1"/></g><g><text fill="#595959" fill-opacity="1" font-family="Aptos Narrow,Aptos Narrow_MSFontService,sans-serif" font-style="normal" font-variant="normal" font-weight="400" font-stretch="semi-condensed" font-size="41" text-anchor="start" direction="ltr" writing-mode="lr-tb" unicode-bidi="normal" text-decoration="none" transform="matrix(1 0 0 1 782.217 1633)">Δ</text></g><g><text fill="#595959" fill-opacity="1" font-family="Aptos Narrow,Aptos Narrow_MSFontService,sans-serif" font-style="normal" font-variant="normal" font-weight="400" font-stretch="semi-condensed" font-size="41" text-anchor="start" direction="ltr" writing-mode="lr-tb" unicode-bidi="normal" text-decoration="none" transform="matrix(1 0 0 1 804.469 1633)">x (estimation)</text></g><g><path d="M1089.5 1622.5 1177.5 1622.5" stroke="#FFC000" stroke-width="9.16667" stroke-linecap="round" stroke-linejoin="round" stroke-miterlimit="10" stroke-opacity="1" fill="none" fill-rule="evenodd"/></g><g><text fill="#595959" fill-opacity="1" font-family="Aptos Narrow,Aptos Narrow_MSFontService,sans-serif" font-style="normal" font-variant="normal" font-weight="400" font-stretch="semi-condensed" font-size="41" text-anchor="start" direction="ltr" writing-mode="lr-tb" unicode-bidi="normal" text-decoration="none" transform="matrix(1 0 0 1 1187.12 1633)">Δ</text></g><g><text fill="#595959" fill-opacity="1" font-family="Aptos Narrow,Aptos Narrow_MSFontService,sans-serif" font-style="normal" font-variant="normal" font-weight="400" font-stretch="semi-condensed" font-size="41" text-anchor="start" direction="ltr" writing-mode="lr-tb" unicode-bidi="normal" text-decoration="none" transform="matrix(1 0 0 1 1209.37 1633)">x reference</text></g><g><path d="M1452.5 1622.5 1540.5 1622.5" stroke="#00B0F0" stroke-width="9.16667" stroke-linecap="round" stroke-linejoin="round" stroke-miterlimit="10" stroke-opacity="1" fill="none" fill-rule="evenodd"/></g><g><text fill="#595959" fill-opacity="1" font-family="Aptos Narrow,Aptos Narrow_MSFontService,sans-serif" font-style="normal" font-variant="normal" font-weight="400" font-stretch="semi-condensed" font-size="41" text-anchor="start" direction="ltr" writing-mode="lr-tb" unicode-bidi="normal" text-decoration="none" transform="matrix(1 0 0 1 1549.29 1633)">Ax average</text></g><g><path d="M1839.5 1622.5C1839.5 1628.57 1834.57 1633.5 1828.5 1633.5 1822.42 1633.5 1817.5 1628.57 1817.5 1622.5 1817.5 1616.42 1822.42 1611.5 1828.5 1611.5 1834.57 1611.5 1839.5 1616.42 1839.5 1622.5Z" stroke="#E97132" stroke-width="3.4375" stroke-linecap="butt" stroke-linejoin="round" stroke-miterlimit="10" stroke-opacity="1" fill="#E97132" fill-rule="nonzero" fill-opacity="1"/></g><g><text fill="#595959" fill-opacity="1" font-family="Aptos Narrow,Aptos Narrow_MSFontService,sans-serif" font-style="normal" font-variant="normal" font-weight="400" font-stretch="semi-condensed" font-size="41" text-anchor="start" direction="ltr" writing-mode="lr-tb" unicode-bidi="normal" text-decoration="none" transform="matrix(1 0 0 1 1882.1 1633)">Δ</text></g><g><text fill="#595959" fill-opacity="1" font-family="Aptos Narrow,Aptos Narrow_MSFontService,sans-serif" font-style="normal" font-variant="normal" font-weight="400" font-stretch="semi-condensed" font-size="41" text-anchor="start" direction="ltr" writing-mode="lr-tb" unicode-bidi="normal" text-decoration="none" transform="matrix(1 0 0 1 1904.35 1633)">x error</text></g><rect x="298.5" y="147.5" width="2081" height="1542" stroke="#D9D9D9" stroke-width="3.4375" stroke-linecap="butt" stroke-linejoin="round" stroke-miterlimit="10" stroke-opacity="1" fill="none"/></g></g></svg>