<svg width="2090" height="1549" xmlns="http://www.w3.org/2000/svg" xmlns:xlink="http://www.w3.org/1999/xlink" xml:space="preserve" overflow="hidden"><defs><clipPath id="clip0"><rect x="293" y="142" width="2090" height="1549"/></clipPath><clipPath id="clip1"><rect x="293" y="142" width="2090" height="1549"/></clipPath></defs><g clip-path="url(#clip0)" transform="translate(-293 -142)"><g clip-path="url(#clip1)"><rect x="298" y="147" width="2081" height="1542" fill="#FFFFFF" fill-opacity="1"/><g><path d="M504.5 1262.5 2140.5 1262.5M504.5 1144.5 2140.5 1144.5M504.5 1026.5 2140.5 1026.5M504.5 907.5 2140.5 907.5M504.5 789.5 2140.5 789.5M504.5 671.5 2140.5 671.5M504.5 553.5 2140.5 553.5M504.5 434.5 2140.5 434.5M504.5 316.5 2140.5 316.5" stroke="#D9D9D9" stroke-width="3.4375" stroke-linecap="butt" stroke-linejoin="round" stroke-miterlimit="10" stroke-opacity="1" fill="none" fill-rule="nonzero"/></g><g><path d="M668.5 316.5 668.5 1380.5M831.5 316.5 831.5 1380.5M995.5 316.5 995.5 1380.5M1158.5 316.5 1158.5 1380.5M1322.5 316.5 1322.5 1380.5M1486.5 316.5 1486.5 1380.5M1649.5 316.5 1649.5 1380.5M1813.5 316.5 1813.5 1380.5M1976.5 316.5 1976.5 1380.5M2140.5 316.5 2140.5 1380.5" stroke="#D9D9D9" stroke-width="3.4375" stroke-linecap="butt" stroke-linejoin="round" stroke-miterlimit="10" stroke-opacity="1" fill="none" fill-rule="nonzero"/></g><g><path d="M0 0 0.000360892 1064" stroke="#BFBFBF" stroke-width="3.4375" stroke-linecap="butt" stroke-linejoin="round" stroke-miterlimit="10" stroke-opacity="1" fill="none" fill-rule="evenodd" transform="matrix(1 0 0 -1 2140.5 1380.5)"/></g><g><path d="M2140.5 1380.5 2153.5 1380.5M2140.5 1262.5 2153.5 1262.5M2140.5 1144.5 2153.5 1144.5M2140.5 1026.5 2153.5 1026.5M2140.5 907.5 2153.5 907.5M2140.5 789.5 2153.5 789.5M2140.5 671.5 2153.5 671.5M2140.5 553.5 2153.5 553.5M2140.5 434.5 2153.5 434.5M2140.5 316.5 2153.5 316.5" stroke="#BFBFBF" stroke-width="3.4375" stroke-linecap="butt" stroke-linejoin="round" stroke-miterlimit="10" stroke-opacity="1" fill="none" fill-rule="nonzero"/></g><g><path d="M0 0 0.000360892 1064" stroke="#BFBFBF" stroke-width="3.4375" stroke-linecap="butt" stroke-linejoin="round" stroke-miterlimit="10" stroke-opacity="1" fill="none" fill-rule="evenodd" transform="matrix(1 0 0 -1 504.5 1380.5)"/></g><g><path d="M504.5 1380.5 2140.5 1380.5" stroke="#BFBFBF" stroke-width="3.4375" stroke-linecap="butt" stroke-linejoin="round" stroke-miterlimit="10" stroke-opacity="1" fill="none" fill-rule="evenodd"/></g><g><path d="M504.5 789.5 2058.5 789.5" stroke="#FFC000" stroke-width="9.16667" stroke-linecap="round" stroke-linejoin="round" stroke-miterlimit="10" stroke-opacity="1" fill="none" fill-rule="nonzero"/></g><g><path d="M504.5 807.5 2058.5 807.5" stroke="#00B0F0" stroke-width="9.16667" stroke-linecap="round" stroke-linejoin="round" stroke-miterlimit="10" stroke-opacity="1" fill="none" fill-rule="nonzero"/></g><g><path d="M597.416 564.166C597.416 570.241 592.492 575.166 586.417 575.166 580.342 575.166 575.417 570.241 575.417 564.166 575.417 558.091 580.342 553.166 586.417 553.166 592.492 553.166 597.416 558.091 597.416 564.166Z" stroke="#156082" stroke-width="3.4375" stroke-linecap="butt" stroke-linejoin="round" stroke-miterlimit="10" stroke-opacity="1" fill="#156082" fill-rule="nonzero" fill-opacity="1"/><path d="M679.416 736.166C679.416 742.241 674.492 747.166 668.417 747.166 662.342 747.166 657.417 742.241 657.417 736.166 657.417 730.091 662.342 725.167 668.417 725.167 674.492 725.167 679.416 730.091 679.416 736.166Z" stroke="#156082" stroke-width="3.4375" stroke-linecap="butt" stroke-linejoin="round" stroke-miterlimit="10" stroke-opacity="1" fill="#156082" fill-rule="nonzero" fill-opacity="1"/><path d="M761.416 958.166C761.416 964.241 756.491 969.166 750.417 969.166 744.342 969.166 739.417 964.241 739.417 958.166 739.417 952.091 744.342 947.166 750.417 947.166 756.491 947.166 761.416 952.091 761.416 958.166Z" stroke="#156082" stroke-width="3.4375" stroke-linecap="butt" stroke-linejoin="round" stroke-miterlimit="10" stroke-opacity="1" fill="#156082" fill-rule="nonzero" fill-opacity="1"/><path d="M842.416 1063.17C842.416 1069.24 837.492 1074.17 831.417 1074.17 825.342 1074.17 820.417 1069.24 820.417 1063.17 820.417 1057.09 825.342 1052.17 831.417 1052.17 837.492 1052.17 842.416 1057.09 842.416 1063.17Z" stroke="#156082" stroke-width="3.4375" stroke-linecap="butt" stroke-linejoin="round" stroke-miterlimit="10" stroke-opacity="1" fill="#156082" fill-rule="nonzero" fill-opacity="1"/><path d="M924.416 866.166C924.416 872.241 919.492 877.166 913.417 877.166 907.342 877.166 902.417 872.241 902.417 866.166 902.417 860.091 907.342 855.167 913.417 855.167 919.492 855.167 924.416 860.091 924.416 866.166Z" stroke="#156082" stroke-width="3.4375" stroke-linecap="butt" stroke-linejoin="round" stroke-miterlimit="10" stroke-opacity="1" fill="#156082" fill-rule="nonzero" fill-opacity="1"/><path d="M1006.42 801.166C1006.42 807.241 1001.49 812.166 995.417 812.166 989.342 812.166 984.417 807.241 984.417 801.166 984.417 795.091 989.342 790.167 995.417 790.167 1001.49 790.167 1006.42 795.091 1006.42 801.166Z" stroke="#156082" stroke-width="3.4375" stroke-linecap="butt" stroke-linejoin="round" stroke-miterlimit="10" stroke-opacity="1" fill="#156082" fill-rule="nonzero" fill-opacity="1"/><path d="M1088.42 713.166C1088.42 719.241 1083.49 724.166 1077.42 724.166 1071.34 724.166 1066.42 719.241 1066.42 713.166 1066.42 707.091 1071.34 702.167 1077.42 702.167 1083.49 702.167 1088.42 707.091 1088.42 713.166Z" stroke="#156082" stroke-width="3.4375" stroke-linecap="butt" stroke-linejoin="round" stroke-miterlimit="10" stroke-opacity="1" fill="#156082" fill-rule="nonzero" fill-opacity="1"/><path d="M1169.42 629.166C1169.42 635.241 1164.49 640.166 1158.42 640.166 1152.34 640.166 1147.42 635.241 1147.42 629.166 1147.42 623.091 1152.34 618.166 1158.42 618.166 1164.49 618.166 1169.42 623.091 1169.42 629.166Z" stroke="#156082" stroke-width="3.4375" stroke-linecap="butt" stroke-linejoin="round" stroke-miterlimit="10" stroke-opacity="1" fill="#156082" fill-rule="nonzero" fill-opacity="1"/><path d="M1251.42 625.166C1251.42 631.241 1246.49 636.166 1240.42 636.166 1234.34 636.166 1229.42 631.241 1229.42 625.166 1229.42 619.091 1234.34 614.167 1240.42 614.167 1246.49 614.167 1251.42 619.091 1251.42 625.166Z" stroke="#156082" stroke-width="3.4375" stroke-linecap="butt" stroke-linejoin="round" stroke-miterlimit="10" stroke-opacity="1" fill="#156082" fill-rule="nonzero" fill-opacity="1"/><path d="M1333.42 866.166C1333.42 872.241 1328.49 877.166 1322.42 877.166 1316.34 877.166 1311.42 872.241 1311.42 866.166 1311.42 860.091 1316.34 855.167 1322.42 855.167 1328.49 855.167 1333.42 860.091 1333.42 866.166Z" stroke="#156082" stroke-width="3.4375" stroke-linecap="butt" stroke-linejoin="round" stroke-miterlimit="10" stroke-opacity="1" fill="#156082" fill-rule="nonzero" fill-opacity="1"/><path d="M1415.42 1028.17C1415.42 1034.24 1410.49 1039.17 1404.42 1039.17 1398.34 1039.17 1393.42 1034.24 1393.42 1028.17 1393.42 1022.09 1398.34 1017.17 1404.42 1017.17 1410.49 1017.17 1415.42 1022.09 1415.42 1028.17Z" stroke="#156082" stroke-width="3.4375" stroke-linecap="butt" stroke-linejoin="round" stroke-miterlimit="10" stroke-opacity="1" fill="#156082" fill-rule="nonzero" fill-opacity="1"/><path d="M1497.42 1144.17C1497.42 1150.24 1492.49 1155.17 1486.42 1155.17 1480.34 1155.17 1475.42 1150.24 1475.42 1144.17 1475.42 1138.09 1480.34 1133.17 1486.42 1133.17 1492.49 1133.17 1497.42 1138.09 1497.42 1144.17Z" stroke="#156082" stroke-width="3.4375" stroke-linecap="butt" stroke-linejoin="round" stroke-miterlimit="10" stroke-opacity="1" fill="#156082" fill-rule="nonzero" fill-opacity="1"/><path d="M1578.42 897.166C1578.42 903.241 1573.49 908.166 1567.42 908.166 1561.34 908.166 1556.42 903.241 1556.42 897.166 1556.42 891.091 1561.34 886.167 1567.42 886.167 1573.49 886.167 1578.42 891.091 1578.42 897.166Z" stroke="#156082" stroke-width="3.4375" stroke-linecap="butt" stroke-linejoin="round" stroke-miterlimit="10" stroke-opacity="1" fill="#156082" fill-rule="nonzero" fill-opacity="1"/><path d="M1660.42 690.166C1660.42 696.241 1655.49 701.166 1649.42 701.166 1643.34 701.166 1638.42 696.241 1638.42 690.166 1638.42 684.091 1643.34 679.167 1649.42 679.167 1655.49 679.167 1660.42 684.091 1660.42 690.166Z" stroke="#156082" stroke-width="3.4375" stroke-linecap="butt" stroke-linejoin="round" stroke-miterlimit="10" stroke-opacity="1" fill="#156082" fill-rule="nonzero" fill-opacity="1"/><path d="M1742.42 495.166C1742.42 501.241 1737.49 506.166 1731.42 506.166 1725.34 506.166 1720.42 501.241 1720.42 495.166 1720.42 489.091 1725.34 484.167 1731.42 484.167 1737.49 484.167 1742.42 489.091 1742.42 495.166Z" stroke="#156082" stroke-width="3.4375" stroke-linecap="butt" stroke-linejoin="round" stroke-miterlimit="10" stroke-opacity="1" fill="#156082" fill-rule="nonzero" fill-opacity="1"/><path d="M1824.42 473.166C1824.42 479.241 1819.49 484.166 1813.42 484.166 1807.34 484.166 1802.42 479.241 1802.42 473.166 1802.42 467.091 1807.34 462.167 1813.42 462.167 1819.49 462.167 1824.42 467.091 1824.42 473.166Z" stroke="#156082" stroke-width="3.4375" stroke-linecap="butt" stroke-linejoin="round" stroke-miterlimit="10" stroke-opacity="1" fill="#156082" fill-rule="nonzero" fill-opacity="1"/><path d="M1905.42 824.166C1905.42 830.241 1900.49 835.166 1894.42 835.166 1888.34 835.166 1883.42 830.241 1883.42 824.166 1883.42 818.091 1888.34 813.167 1894.42 813.167 1900.49 813.167 1905.42 818.091 1905.42 824.166Z" stroke="#156082" stroke-width="3.4375" stroke-linecap="butt" stroke-linejoin="round" stroke-miterlimit="10" stroke-opacity="1" fill="#156082" fill-rule="nonzero" fill-opacity="1"/><path d="M1987.42 1032.17C1987.42 1038.24 1982.49 1043.17 1976.42 1043.17 1970.34 1043.17 1965.42 1038.24 1965.42 1032.17 1965.42 1026.09 1970.34 1021.17 1976.42 1021.17 1982.49 1021.17 1987.42 1026.09 1987.42 1032.17Z" stroke="#156082" stroke-width="3.4375" stroke-linecap="butt" stroke-linejoin="round" stroke-miterlimit="10" stroke-opacity="1" fill="#156082" fill-rule="nonzero" fill-opacity="1"/><path d="M2069.42 939.166C2069.42 945.241 2064.49 950.166 2058.42 950.166 2052.34 950.166 2047.42 945.241 2047.42 939.166 2047.42 933.091 2052.34 928.167 2058.42 928.167 2064.49 928.167 2069.42 933.091 2069.42 939.166Z" stroke="#156082" stroke-width="3.4375" stroke-linecap="butt" stroke-linejoin="round" stroke-miterlimit="10" stroke-opacity="1" fill="#156082" fill-rule="nonzero" fill-opacity="1"/></g><g><path d="M597.416 451.166C597.416 457.241 592.492 462.166 586.417 462.166 580.342 462.166 575.417 457.241 575.417 451.166 575.417 445.091 580.342 440.167 586.417 440.167 592.492 440.167 597.416 445.091 597.416 451.166Z" stroke="#E97132" stroke-width="3.4375" stroke-linecap="butt" stroke-linejoin="round" stroke-miterlimit="10" stroke-opacity="1" fill="#E97132" fill-rule="nonzero" fill-opacity="1"/><path d="M679.416 401.166C679.416 407.241 674.492 412.166 668.417 412.166 662.342 412.166 657.417 407.241 657.417 401.166 657.417 395.091 662.342 390.167 668.417 390.167 674.492 390.167 679.416 395.091 679.416 401.166Z" stroke="#E97132" stroke-width="3.4375" stroke-linecap="butt" stroke-linejoin="round" stroke-miterlimit="10" stroke-opacity="1" fill="#E97132" fill-rule="nonzero" fill-opacity="1"/><path d="M761.416 375.166C761.416 381.241 756.491 386.166 750.417 386.166 744.342 386.166 739.417 381.241 739.417 375.166 739.417 369.091 744.342 364.166 750.417 364.166 756.491 364.166 761.416 369.091 761.416 375.166Z" stroke="#E97132" stroke-width="3.4375" stroke-linecap="butt" stroke-linejoin="round" stroke-miterlimit="10" stroke-opacity="1" fill="#E97132" fill-rule="nonzero" fill-opacity="1"/><path d="M842.416 442.166C842.416 448.241 837.492 453.166 831.417 453.166 825.342 453.166 820.417 448.241 820.417 442.166 820.417 436.091 825.342 431.166 831.417 431.166 837.492 431.166 842.416 436.091 842.416 442.166Z" stroke="#E97132" stroke-width="3.4375" stroke-linecap="butt" stroke-linejoin="round" stroke-miterlimit="10" stroke-opacity="1" fill="#E97132" fill-rule="nonzero" fill-opacity="1"/><path d="M924.416 476.166C924.416 482.241 919.492 487.166 913.417 487.166 907.342 487.166 902.417 482.241 902.417 476.166 902.417 470.091 907.342 465.166 913.417 465.166 919.492 465.166 924.416 470.091 924.416 476.166Z" stroke="#E97132" stroke-width="3.4375" stroke-linecap="butt" stroke-linejoin="round" stroke-miterlimit="10" stroke-opacity="1" fill="#E97132" fill-rule="nonzero" fill-opacity="1"/><path d="M1006.42 475.166C1006.42 481.241 1001.49 486.166 995.417 486.166 989.342 486.166 984.417 481.241 984.417 475.166 984.417 469.091 989.342 464.166 995.417 464.166 1001.49 464.166 1006.42 469.091 1006.42 475.166Z" stroke="#E97132" stroke-width="3.4375" stroke-linecap="butt" stroke-linejoin="round" stroke-miterlimit="10" stroke-opacity="1" fill="#E97132" fill-rule="nonzero" fill-opacity="1"/><path d="M1088.42 564.166C1088.42 570.241 1083.49 575.166 1077.42 575.166 1071.34 575.166 1066.42 570.241 1066.42 564.166 1066.42 558.091 1071.34 553.166 1077.42 553.166 1083.49 553.166 1088.42 558.091 1088.42 564.166Z" stroke="#E97132" stroke-width="3.4375" stroke-linecap="butt" stroke-linejoin="round" stroke-miterlimit="10" stroke-opacity="1" fill="#E97132" fill-rule="nonzero" fill-opacity="1"/><path d="M1169.42 532.166C1169.42 538.241 1164.49 543.166 1158.42 543.166 1152.34 543.166 1147.42 538.241 1147.42 532.166 1147.42 526.091 1152.34 521.167 1158.42 521.167 1164.49 521.167 1169.42 526.091 1169.42 532.166Z" stroke="#E97132" stroke-width="3.4375" stroke-linecap="butt" stroke-linejoin="round" stroke-miterlimit="10" stroke-opacity="1" fill="#E97132" fill-rule="nonzero" fill-opacity="1"/><path d="M1251.42 530.166C1251.42 536.241 1246.49 541.166 1240.42 541.166 1234.34 541.166 1229.42 536.241 1229.42 530.166 1229.42 524.091 1234.34 519.166 1240.42 519.166 1246.49 519.166 1251.42 524.091 1251.42 530.166Z" stroke="#E97132" stroke-width="3.4375" stroke-linecap="butt" stroke-linejoin="round" stroke-miterlimit="10" stroke-opacity="1" fill="#E97132" fill-rule="nonzero" fill-opacity="1"/><path d="M1333.42 483.166C1333.42 489.241 1328.49 494.166 1322.42 494.166 1316.34 494.166 1311.42 489.241 1311.42 483.166 1311.42 477.091 1316.34 472.167 1322.42 472.167 1328.49 472.167 1333.42 477.091 1333.42 483.166Z" stroke="#E97132" stroke-width="3.4375" stroke-linecap="butt" stroke-linejoin="round" stroke-miterlimit="10" stroke-opacity="1" fill="#E97132" fill-rule="nonzero" fill-opacity="1"/><path d="M1415.42 420.166C1415.42 426.241 1410.49 431.166 1404.42 431.166 1398.34 431.166 1393.42 426.241 1393.42 420.166 1393.42 414.091 1398.34 409.166 1404.42 409.166 1410.49 409.166 1415.42 414.091 1415.42 420.166Z" stroke="#E97132" stroke-width="3.4375" stroke-linecap="butt" stroke-linejoin="round" stroke-miterlimit="10" stroke-opacity="1" fill="#E97132" fill-rule="nonzero" fill-opacity="1"/><path d="M1497.42 384.166C1497.42 390.241 1492.49 395.166 1486.42 395.166 1480.34 395.166 1475.42 390.241 1475.42 384.166 1475.42 378.091 1480.34 373.167 1486.42 373.167 1492.49 373.167 1497.42 378.091 1497.42 384.166Z" stroke="#E97132" stroke-width="3.4375" stroke-linecap="butt" stroke-linejoin="round" stroke-miterlimit="10" stroke-opacity="1" fill="#E97132" fill-rule="nonzero" fill-opacity="1"/><path d="M1578.42 485.166C1578.42 491.241 1573.49 496.166 1567.42 496.166 1561.34 496.166 1556.42 491.241 1556.42 485.166 1556.42 479.091 1561.34 474.166 1567.42 474.166 1573.49 474.166 1578.42 479.091 1578.42 485.166Z" stroke="#E97132" stroke-width="3.4375" stroke-linecap="butt" stroke-linejoin="round" stroke-miterlimit="10" stroke-opacity="1" fill="#E97132" fill-rule="nonzero" fill-opacity="1"/><path d="M1660.42 515.166C1660.42 521.241 1655.49 526.166 1649.42 526.166 1643.34 526.166 1638.42 521.241 1638.42 515.166 1638.42 509.091 1643.34 504.167 1649.42 504.167 1655.49 504.167 1660.42 509.091 1660.42 515.166Z" stroke="#E97132" stroke-width="3.4375" stroke-linecap="butt" stroke-linejoin="round" stroke-miterlimit="10" stroke-opacity="1" fill="#E97132" fill-rule="nonzero" fill-opacity="1"/><path d="M1742.42 463.166C1742.42 469.241 1737.49 474.166 1731.42 474.166 1725.34 474.166 1720.42 469.241 1720.42 463.166 1720.42 457.091 1725.34 452.166 1731.42 452.166 1737.49 452.166 1742.42 457.091 1742.42 463.166Z" stroke="#E97132" stroke-width="3.4375" stroke-linecap="butt" stroke-linejoin="round" stroke-miterlimit="10" stroke-opacity="1" fill="#E97132" fill-rule="nonzero" fill-opacity="1"/><path d="M1824.42 443.166C1824.42 449.241 1819.49 454.166 1813.42 454.166 1807.34 454.166 1802.42 449.241 1802.42 443.166 1802.42 437.091 1807.34 432.166 1813.42 432.166 1819.49 432.166 1824.42 437.091 1824.42 443.166Z" stroke="#E97132" stroke-width="3.4375" stroke-linecap="butt" stroke-linejoin="round" stroke-miterlimit="10" stroke-opacity="1" fill="#E97132" fill-rule="nonzero" fill-opacity="1"/><path d="M1905.42 602.166C1905.42 608.241 1900.49 613.166 1894.42 613.166 1888.34 613.166 1883.42 608.241 1883.42 602.166 1883.42 596.091 1888.34 591.167 1894.42 591.167 1900.49 591.167 1905.42 596.091 1905.42 602.166Z" stroke="#E97132" stroke-width="3.4375" stroke-linecap="butt" stroke-linejoin="round" stroke-miterlimit="10" stroke-opacity="1" fill="#E97132" fill-rule="nonzero" fill-opacity="1"/><path d="M1987.42 612.166C1987.42 618.241 1982.49 623.166 1976.42 623.166 1970.34 623.166 1965.42 618.241 1965.42 612.166 1965.42 606.091 1970.34 601.167 1976.42 601.167 1982.49 601.167 1987.42 606.091 1987.42 612.166Z" stroke="#E97132" stroke-width="3.4375" stroke-linecap="butt" stroke-linejoin="round" stroke-miterlimit="10" stroke-opacity="1" fill="#E97132" fill-rule="nonzero" fill-opacity="1"/><path d="M2069.42 495.166C2069.42 501.241 2064.49 506.166 2058.42 506.166 2052.34 506.166 2047.42 501.241 2047.42 495.166 2047.42 489.091 2052.34 484.167 2058.42 484.167 2064.49 484.167 2069.42 489.091 2069.42 495.166Z" stroke="#E97132" stroke-width="3.4375" stroke-linecap="butt" stroke-linejoin="round" stroke-miterlimit="10" stroke-opacity="1" fill="#E97132" fill-rule="nonzero" fill-opacity="1"/></g><g><text fill="#595959" fill-opacity="1" font-family="Aptos Narrow,Aptos Narrow_MSFontService,sans-serif" font-style="normal" font-variant="normal" font-weight="400" font-stretch="semi-condensed" font-size="41" text-anchor="start" direction="ltr" writing-mode="lr-tb" unicode-bidi="normal" text-decoration="none" transform="matrix(1 0 0 1 2178.34 1391)">0</text></g><g><text fill="#595959" fill-opacity="1" font-family="Aptos Narrow,Aptos Narrow_MSFontService,sans-serif" font-style="normal" font-variant="normal" font-weight="400" font-stretch="semi-condensed" font-size="41" text-anchor="start" direction="ltr" writing-mode="lr-tb" unicode-bidi="normal" text-decoration="none" transform="matrix(1 0 0 1 2178.34 1273)">0.05</text></g><g><text fill="#595959" fill-opacity="1" font-family="Aptos Narrow,Aptos Narrow_MSFontService,sans-serif" font-style="normal" font-variant="normal" font-weight="400" font-stretch="semi-condensed" font-size="41" text-anchor="start" direction="ltr" writing-mode="lr-tb" unicode-bidi="normal" text-decoration="none" transform="matrix(1 0 0 1 2178.34 1155)">0.1</text></g><g><text fill="#595959" fill-opacity="1" font-family="Aptos Narrow,Aptos Narrow_MSFontService,sans-serif" font-style="normal" font-variant="normal" font-weight="400" font-stretch="semi-condensed" font-size="41" text-anchor="start" direction="ltr" writing-mode="lr-tb" unicode-bidi="normal" text-decoration="none" transform="matrix(1 0 0 1 2178.34 1037)">0.15</text></g><g><text fill="#595959" fill-opacity="1" font-family="Aptos Narrow,Aptos Narrow_MSFontService,sans-serif" font-style="normal" font-variant="normal" font-weight="400" font-stretch="semi-condensed" font-size="41" text-anchor="start" direction="ltr" writing-mode="lr-tb" unicode-bidi="normal" text-decoration="none" transform="matrix(1 0 0 1 2178.34 918)">0.2</text></g><g><text fill="#595959" fill-opacity="1" font-family="Aptos Narrow,Aptos Narrow_MSFontService,sans-serif" font-style="normal" font-variant="normal" font-weight="400" font-stretch="semi-condensed" font-size="41" text-anchor="start" direction="ltr" writing-mode="lr-tb" unicode-bidi="normal" text-decoration="none" transform="matrix(1 0 0 1 2178.34 800)">0.25</text></g><g><text fill="#595959" fill-opacity="1" font-family="Aptos Narrow,Aptos Narrow_MSFontService,sans-serif" font-style="normal" font-variant="normal" font-weight="400" font-stretch="semi-condensed" font-size="41" text-anchor="start" direction="ltr" writing-mode="lr-tb" unicode-bidi="normal" text-decoration="none" transform="matrix(1 0 0 1 2178.34 682)">0.3</text></g><g><text fill="#595959" fill-opacity="1" font-family="Aptos Narrow,Aptos Narrow_MSFontService,sans-serif" font-style="normal" font-variant="normal" font-weight="400" font-stretch="semi-condensed" font-size="41" text-anchor="start" direction="ltr" writing-mode="lr-tb" unicode-bidi="normal" text-decoration="none" transform="matrix(1 0 0 1 2178.34 564)">0.35</text></g><g><text fill="#595959" fill-opacity="1" font-family="Aptos Narrow,Aptos Narrow_MSFontService,sans-serif" font-style="normal" font-variant="normal" font-weight="400" font-stretch="semi-condensed" font-size="41" text-anchor="start" direction="ltr" writing-mode="lr-tb" unicode-bidi="normal" text-decoration="none" transform="matrix(1 0 0 1 2178.34 445)">0.4</text></g><g><text fill="#595959" fill-opacity="1" font-family="Aptos Narrow,Aptos Narrow_MSFontService,sans-serif" font-style="normal" font-variant="normal" font-weight="400" font-stretch="semi-condensed" font-size="41" text-anchor="start" direction="ltr" writing-mode="lr-tb" unicode-bidi="normal" text-decoration="none" transform="matrix(1 0 0 1 2178.34 327)">0.45</text></g><g><text fill="#595959" fill-opacity="1" font-family="Aptos Narrow,Aptos Narrow_MSFontService,sans-serif" font-style="normal" font-variant="normal" font-weight="400" font-stretch="semi-condensed" font-size="41" text-anchor="start" direction="ltr" writing-mode="lr-tb" unicode-bidi="normal" text-decoration="none" transform="matrix(1 0 0 1 445.798 1391)">0</text></g><g><text fill="#595959" fill-opacity="1" font-family="Aptos Narrow,Aptos Narrow_MSFontService,sans-serif" font-style="normal" font-variant="normal" font-weight="400" font-stretch="semi-condensed" font-size="41" text-anchor="start" direction="ltr" writing-mode="lr-tb" unicode-bidi="normal" text-decoration="none" transform="matrix(1 0 0 1 424.898 1273)">10</text></g><g><text fill="#595959" fill-opacity="1" font-family="Aptos Narrow,Aptos Narrow_MSFontService,sans-serif" font-style="normal" font-variant="normal" font-weight="400" font-stretch="semi-condensed" font-size="41" text-anchor="start" direction="ltr" writing-mode="lr-tb" unicode-bidi="normal" text-decoration="none" transform="matrix(1 0 0 1 424.898 1155)">20</text></g><g><text fill="#595959" fill-opacity="1" font-family="Aptos Narrow,Aptos Narrow_MSFontService,sans-serif" font-style="normal" font-variant="normal" font-weight="400" font-stretch="semi-condensed" font-size="41" text-anchor="start" direction="ltr" writing-mode="lr-tb" unicode-bidi="normal" text-decoration="none" transform="matrix(1 0 0 1 424.898 1037)">30</text></g><g><text fill="#595959" fill-opacity="1" font-family="Aptos Narrow,Aptos Narrow_MSFontService,sans-serif" font-style="normal" font-variant="normal" font-weight="400" font-stretch="semi-condensed" font-size="41" text-anchor="start" direction="ltr" writing-mode="lr-tb" unicode-bidi="normal" text-decoration="none" transform="matrix(1 0 0 1 424.898 918)">40</text></g><g><text fill="#595959" fill-opacity="1" font-family="Aptos Narrow,Aptos Narrow_MSFontService,sans-serif" font-style="normal" font-variant="normal" font-weight="400" font-stretch="semi-condensed" font-size="41" text-anchor="start" direction="ltr" writing-mode="lr-tb" unicode-bidi="normal" text-decoration="none" transform="matrix(1 0 0 1 424.898 800)">50</text></g><g><text fill="#595959" fill-opacity="1" font-family="Aptos Narrow,Aptos Narrow_MSFontService,sans-serif" font-style="normal" font-variant="normal" font-weight="400" font-stretch="semi-condensed" font-size="41" text-anchor="start" direction="ltr" writing-mode="lr-tb" unicode-bidi="normal" text-decoration="none" transform="matrix(1 0 0 1 424.898 682)">60</text></g><g><text fill="#595959" fill-opacity="1" font-family="Aptos Narrow,Aptos Narrow_MSFontService,sans-serif" font-style="normal" font-variant="normal" font-weight="400" font-stretch="semi-condensed" font-size="41" text-anchor="start" direction="ltr" writing-mode="lr-tb" unicode-bidi="normal" text-decoration="none" transform="matrix(1 0 0 1 424.898 564)">70</text></g><g><text fill="#595959" fill-opacity="1" font-family="Aptos Narrow,Aptos Narrow_MSFontService,sans-serif" font-style="normal" font-variant="normal" font-weight="400" font-stretch="semi-condensed" font-size="41" text-anchor="start" direction="ltr" writing-mode="lr-tb" unicode-bidi="normal" text-decoration="none" transform="matrix(1 0 0 1 424.898 445)">80</text></g><g><text fill="#595959" fill-opacity="1" font-family="Aptos Narrow,Aptos Narrow_MSFontService,sans-serif" font-style="normal" font-variant="normal" font-weight="400" font-stretch="semi-condensed" font-size="41" text-anchor="start" direction="ltr" writing-mode="lr-tb" unicode-bidi="normal" text-decoration="none" transform="matrix(1 0 0 1 424.898 327)">90</text></g><g><text fill="#595959" fill-opacity="1" font-family="Aptos Narrow,Aptos Narrow_MSFontService,sans-serif" font-style="normal" font-variant="normal" font-weight="400" font-stretch="semi-condensed" font-size="41" text-anchor="start" direction="ltr" writing-mode="lr-tb" unicode-bidi="normal" text-decoration="none" transform="matrix(1 0 0 1 494.332 1446)">0</text></g><g><text fill="#595959" fill-opacity="1" font-family="Aptos Narrow,Aptos Narrow_MSFontService,sans-serif" font-style="normal" font-variant="normal" font-weight="400" font-stretch="semi-condensed" font-size="41" text-anchor="start" direction="ltr" writing-mode="lr-tb" unicode-bidi="normal" text-decoration="none" transform="matrix(1 0 0 1 636.979 1446)">100</text></g><g><text fill="#595959" fill-opacity="1" font-family="Aptos Narrow,Aptos Narrow_MSFontService,sans-serif" font-style="normal" font-variant="normal" font-weight="400" font-stretch="semi-condensed" font-size="41" text-anchor="start" direction="ltr" writing-mode="lr-tb" unicode-bidi="normal" text-decoration="none" transform="matrix(1 0 0 1 800.527 1446)">200</text></g><g><text fill="#595959" fill-opacity="1" font-family="Aptos Narrow,Aptos Narrow_MSFontService,sans-serif" font-style="normal" font-variant="normal" font-weight="400" font-stretch="semi-condensed" font-size="41" text-anchor="start" direction="ltr" writing-mode="lr-tb" unicode-bidi="normal" text-decoration="none" transform="matrix(1 0 0 1 964.075 1446)">300</text></g><g><text fill="#595959" fill-opacity="1" font-family="Aptos Narrow,Aptos Narrow_MSFontService,sans-serif" font-style="normal" font-variant="normal" font-weight="400" font-stretch="semi-condensed" font-size="41" text-anchor="start" direction="ltr" writing-mode="lr-tb" unicode-bidi="normal" text-decoration="none" transform="matrix(1 0 0 1 1127.62 1446)">400</text></g><g><text fill="#595959" fill-opacity="1" font-family="Aptos Narrow,Aptos Narrow_MSFontService,sans-serif" font-style="normal" font-variant="normal" font-weight="400" font-stretch="semi-condensed" font-size="41" text-anchor="start" direction="ltr" writing-mode="lr-tb" unicode-bidi="normal" text-decoration="none" transform="matrix(1 0 0 1 1291.17 1446)">500</text></g><g><text fill="#595959" fill-opacity="1" font-family="Aptos Narrow,Aptos Narrow_MSFontService,sans-serif" font-style="normal" font-variant="normal" font-weight="400" font-stretch="semi-condensed" font-size="41" text-anchor="start" direction="ltr" writing-mode="lr-tb" unicode-bidi="normal" text-decoration="none" transform="matrix(1 0 0 1 1454.72 1446)">600</text></g><g><text fill="#595959" fill-opacity="1" font-family="Aptos Narrow,Aptos Narrow_MSFontService,sans-serif" font-style="normal" font-variant="normal" font-weight="400" font-stretch="semi-condensed" font-size="41" text-anchor="start" direction="ltr" writing-mode="lr-tb" unicode-bidi="normal" text-decoration="none" transform="matrix(1 0 0 1 1618.27 1446)">700</text></g><g><text fill="#595959" fill-opacity="1" font-family="Aptos Narrow,Aptos Narrow_MSFontService,sans-serif" font-style="normal" font-variant="normal" font-weight="400" font-stretch="semi-condensed" font-size="41" text-anchor="start" direction="ltr" writing-mode="lr-tb" unicode-bidi="normal" text-decoration="none" transform="matrix(1 0 0 1 1781.81 1446)">800</text></g><g><text fill="#595959" fill-opacity="1" font-family="Aptos Narrow,Aptos Narrow_MSFontService,sans-serif" font-style="normal" font-variant="normal" font-weight="400" font-stretch="semi-condensed" font-size="41" text-anchor="start" direction="ltr" writing-mode="lr-tb" unicode-bidi="normal" text-decoration="none" transform="matrix(1 0 0 1 1945.36 1446)">900</text></g><g><text fill="#595959" fill-opacity="1" font-family="Aptos Narrow,Aptos Narrow_MSFontService,sans-serif" font-style="normal" font-variant="normal" font-weight="400" font-stretch="semi-condensed" font-size="41" text-anchor="start" direction="ltr" writing-mode="lr-tb" unicode-bidi="normal" text-decoration="none" transform="matrix(1 0 0 1 2098.46 1446)">1000</text></g><g><text fill="#595959" fill-opacity="1" font-family="Aptos Narrow,Aptos Narrow_MSFontService,sans-serif" font-style="normal" font-variant="normal" font-weight="400" font-stretch="semi-condensed" font-size="46" text-anchor="start" direction="ltr" writing-mode="lr-tb" unicode-bidi="normal" text-decoration="none" transform="matrix(6.12323e-17 -1 1 6.12323e-17 2308.51 1054)">Registration Error [0</text></g><g><text fill="#595959" fill-opacity="1" font-family="Aptos Narrow,Aptos Narrow_MSFontService,sans-serif" font-style="normal" font-variant="normal" font-weight="400" font-stretch="semi-condensed" font-size="46" text-anchor="start" direction="ltr" writing-mode="lr-tb" unicode-bidi="normal" text-decoration="none" transform="matrix(6.12323e-17 -1 1 6.12323e-17 2308.51 693)">-</text></g><g><text fill="#595959" fill-opacity="1" font-family="Aptos Narrow,Aptos Narrow_MSFontService,sans-serif" font-style="normal" font-variant="normal" font-weight="400" font-stretch="semi-condensed" font-size="46" text-anchor="start" direction="ltr" writing-mode="lr-tb" unicode-bidi="normal" text-decoration="none" transform="matrix(6.12323e-17 -1 1 6.12323e-17 2308.51 679)">1]</text></g><g><text fill="#595959" fill-opacity="1" font-family="Aptos Narrow,Aptos Narrow_MSFontService,sans-serif" font-style="normal" font-variant="normal" font-weight="400" font-stretch="semi-condensed" font-size="46" text-anchor="start" direction="ltr" writing-mode="lr-tb" unicode-bidi="normal" text-decoration="none" transform="matrix(6.12323e-17 -1 1 6.12323e-17 398.2 1156)">Estimated Displacement (meters)</text></g><g><text fill="#595959" fill-opacity="1" font-family="Aptos Narrow,Aptos Narrow_MSFontService,sans-serif" font-style="normal" font-variant="normal" font-weight="400" font-stretch="semi-condensed" font-size="46" text-anchor="start" direction="ltr" writing-mode="lr-tb" unicode-bidi="normal" text-decoration="none" transform="matrix(1 0 0 1 1072.36 1514)">Total Actual Translation (m)</text></g><g><text fill="#595959" fill-opacity="1" font-family="Aptos Narrow,Aptos Narrow_MSFontService,sans-serif" font-style="normal" font-variant="normal" font-weight="400" font-stretch="semi-condensed" font-size="64" text-anchor="start" direction="ltr" writing-mode="lr-tb" unicode-bidi="normal" text-decoration="none" transform="matrix(1 0 0 1 564.976 241)">Fourier</text></g><g><text fill="#595959" fill-opacity="1" font-family="Aptos Narrow,Aptos Narrow_MSFontService,sans-serif" font-style="normal" font-variant="normal" font-weight="400" font-stretch="semi-condensed" font-size="64" text-anchor="start" direction="ltr" writing-mode="lr-tb" unicode-bidi="normal" text-decoration="none" transform="matrix(1 0 0 1 742.878 241)">-</text></g><g><text fill="#595959" fill-opacity="1" font-family="Aptos Narrow,Aptos Narrow_MSFontService,sans-serif" font-style="normal" font-variant="normal" font-weight="400" font-stretch="semi-condensed" font-size="64" text-anchor="start" direction="ltr" writing-mode="lr-tb" unicode-bidi="normal" text-decoration="none" transform="matrix(1 0 0 1 762.517 241)">Mellin Pipeline Translation Estimation (50m intervals)</text></g><g><path d="M739.499 1622.5C739.499 1628.57 734.574 1633.5 728.5 1633.5 722.425 1633.5 717.5 1628.57 717.5 1622.5 717.5 1616.42 722.425 1611.5 728.5 1611.5 734.574 1611.5 739.499 1616.42 739.499 1622.5Z" stroke="#156082" stroke-width="3.4375" stroke-linecap="butt" stroke-linejoin="round" stroke-miterlimit="10" stroke-opacity="1" fill="#156082" fill-rule="nonzero" fill-opacity="1"/></g><g><text fill="#595959" fill-opacity="1" font-family="Aptos Narrow,Aptos Narrow_MSFontService,sans-serif" font-style="normal" font-variant="normal" font-weight="400" font-stretch="semi-condensed" font-size="41" text-anchor="start" direction="ltr" writing-mode="lr-tb" unicode-bidi="normal" text-decoration="none" transform="matrix(1 0 0 1 782.217 1633)">Δ</text></g><g><text fill="#595959" fill-opacity="1" font-family="Aptos Narrow,Aptos Narrow_MSFontService,sans-serif" font-style="normal" font-variant="normal" font-weight="400" font-stretch="semi-condensed" font-size="41" text-anchor="start" direction="ltr" writing-mode="lr-tb" unicode-bidi="normal" text-decoration="none" transform="matrix(1 0 0 1 804.469 1633)">x (estimation)</text></g><g><path d="M1089.5 1622.5 1177.5 1622.5" stroke="#FFC000" stroke-width="9.16667" stroke-linecap="round" stroke-linejoin="round" stroke-miterlimit="10" stroke-opacity="1" fill="none" fill-rule="evenodd"/></g><g><text fill="#595959" fill-opacity="1" font-family="Aptos Narrow,Aptos Narrow_MSFontService,sans-serif" font-style="normal" font-variant="normal" font-weight="400" font-stretch="semi-condensed" font-size="41" text-anchor="start" direction="ltr" writing-mode="lr-tb" unicode-bidi="normal" text-decoration="none" transform="matrix(1 0 0 1 1187.12 1633)">Δ</text></g><g><text fill="#595959" fill-opacity="1" font-family="Aptos Narrow,Aptos Narrow_MSFontService,sans-serif" font-style="normal" font-variant="normal" font-weight="400" font-stretch="semi-condensed" font-size="41" text-anchor="start" direction="ltr" writing-mode="lr-tb" unicode-bidi="normal" text-decoration="none" transform="matrix(1 0 0 1 1209.37 1633)">x reference</text></g><g><path d="M1452.5 1622.5 1540.5 1622.5" stroke="#00B0F0" stroke-width="9.16667" stroke-linecap="round" stroke-linejoin="round" stroke-miterlimit="10" stroke-opacity="1" fill="none" fill-rule="evenodd"/></g><g><text fill="#595959" fill-opacity="1" font-family="Aptos Narrow,Aptos Narrow_MSFontService,sans-serif" font-style="normal" font-variant="normal" font-weight="400" font-stretch="semi-condensed" font-size="41" text-anchor="start" direction="ltr" writing-mode="lr-tb" unicode-bidi="normal" text-decoration="none" transform="matrix(1 0 0 1 1549.29 1633)">Ax average</text></g><g><path d="M1839.5 1622.5C1839.5 1628.57 1834.57 1633.5 1828.5 1633.5 1822.42 1633.5 1817.5 1628.57 1817.5 1622.5 1817.5 1616.42 1822.42 1611.5 1828.5 1611.5 1834.57 1611.5 1839.5 1616.42 1839.5 1622.5Z" stroke="#E97132" stroke-width="3.4375" stroke-linecap="butt" stroke-linejoin="round" stroke-miterlimit="10" stroke-opacity="1" fill="#E97132" fill-rule="nonzero" fill-opacity="1"/></g><g><text fill="#595959" fill-opacity="1" font-family="Aptos Narrow,Aptos Narrow_MSFontService,sans-serif" font-style="normal" font-variant="normal" font-weight="400" font-stretch="semi-condensed" font-size="41" text-anchor="start" direction="ltr" writing-mode="lr-tb" unicode-bidi="normal" text-decoration="none" transform="matrix(1 0 0 1 1882.1 1633)">Δ</text></g><g><text fill="#595959" fill-opacity="1" font-family="Aptos Narrow,Aptos Narrow_MSFontService,sans-serif" font-style="normal" font-variant="normal" font-weight="400" font-stretch="semi-condensed" font-size="41" text-anchor="start" direction="ltr" writing-mode="lr-tb" unicode-bidi="normal" text-decoration="none" transform="matrix(1 0 0 1 1904.35 1633)">x error</text></g><rect x="298.5" y="147.5" width="2081" height="1542" stroke="#D9D9D9" stroke-width="3.4375" stroke-linecap="butt" stroke-linejoin="round" stroke-miterlimit="10" stroke-opacity="1" fill="none"/></g></g></svg>