<svg width="2090" height="1549" xmlns="http://www.w3.org/2000/svg" xmlns:xlink="http://www.w3.org/1999/xlink" xml:space="preserve" overflow="hidden"><defs><clipPath id="clip0"><rect x="293" y="142" width="2090" height="1549"/></clipPath><clipPath id="clip1"><rect x="293" y="142" width="2090" height="1549"/></clipPath></defs><g clip-path="url(#clip0)" transform="translate(-293 -142)"><g clip-path="url(#clip1)"><rect x="298" y="147" width="2081" height="1542" fill="#FFFFFF" fill-opacity="1"/><g><path d="M525.5 1464.5 2161.5 1464.5M525.5 1136.5 2161.5 1136.5M525.5 972.5 2161.5 972.5M525.5 808.5 2161.5 808.5M525.5 644.5 2161.5 644.5M525.5 480.5 2161.5 480.5M525.5 316.5 2161.5 316.5" stroke="#D9D9D9" stroke-width="3.4375" stroke-linecap="butt" stroke-linejoin="round" stroke-miterlimit="10" stroke-opacity="1" fill="none" fill-rule="nonzero"/></g><g><path d="M689.5 316.5 689.5 1464.5M852.5 316.5 852.5 1464.5M1016.5 316.5 1016.5 1464.5M1179.5 316.5 1179.5 1464.5M1343.5 316.5 1343.5 1464.5M1506.5 316.5 1506.5 1464.5M1670.5 316.5 1670.5 1464.5M1834.5 316.5 1834.5 1464.5M1997.5 316.5 1997.5 1464.5M2161.5 316.5 2161.5 1464.5" stroke="#D9D9D9" stroke-width="3.4375" stroke-linecap="butt" stroke-linejoin="round" stroke-miterlimit="10" stroke-opacity="1" fill="none" fill-rule="nonzero"/></g><g><path d="M0 0 0.000360892 1148" stroke="#BFBFBF" stroke-width="3.4375" stroke-linecap="butt" stroke-linejoin="round" stroke-miterlimit="10" stroke-opacity="1" fill="none" fill-rule="evenodd" transform="matrix(1 0 0 -1 2161.5 1464.5)"/></g><g><path d="M2161.5 1464.5 2174.5 1464.5M2161.5 1336.5 2174.5 1336.5M2161.5 1209.5 2174.5 1209.5M2161.5 1081.5 2174.5 1081.5M2161.5 954.5 2174.5 954.5M2161.5 826.5 2174.5 826.5M2161.5 699.5 2174.5 699.5M2161.5 571.5 2174.5 571.5M2161.5 444.5 2174.5 444.5M2161.5 316.5 2174.5 316.5" stroke="#BFBFBF" stroke-width="3.4375" stroke-linecap="butt" stroke-linejoin="round" stroke-miterlimit="10" stroke-opacity="1" fill="none" fill-rule="nonzero"/></g><g><path d="M0 0 0.000360892 1148" stroke="#BFBFBF" stroke-width="3.4375" stroke-linecap="butt" stroke-linejoin="round" stroke-miterlimit="10" stroke-opacity="1" fill="none" fill-rule="evenodd" transform="matrix(1 0 0 -1 525.5 1464.5)"/></g><g><path d="M525.5 1300.5 2161.5 1300.5" stroke="#BFBFBF" stroke-width="3.4375" stroke-linecap="butt" stroke-linejoin="round" stroke-miterlimit="10" stroke-opacity="1" fill="none" fill-rule="evenodd"/></g><g><path d="M525.5 972.5 1997.5 972.5" stroke="#FFC000" stroke-width="9.16667" stroke-linecap="round" stroke-linejoin="round" stroke-miterlimit="10" stroke-opacity="1" fill="none" fill-rule="nonzero"/></g><g><path d="M525.5 968.5 1997.5 968.5" stroke="#00B0F0" stroke-width="9.16667" stroke-linecap="round" stroke-linejoin="round" stroke-miterlimit="10" stroke-opacity="1" fill="none" fill-rule="nonzero"/></g><g><path d="M700.416 518.166C700.416 524.241 695.492 529.166 689.417 529.166 683.342 529.166 678.417 524.241 678.417 518.166 678.417 512.091 683.342 507.166 689.417 507.166 695.492 507.166 700.416 512.091 700.416 518.166Z" stroke="#156082" stroke-width="3.4375" stroke-linecap="butt" stroke-linejoin="round" stroke-miterlimit="10" stroke-opacity="1" fill="#156082" fill-rule="nonzero" fill-opacity="1"/><path d="M863.416 1150.17C863.416 1156.24 858.492 1161.17 852.417 1161.17 846.342 1161.17 841.417 1156.24 841.417 1150.17 841.417 1144.09 846.342 1139.17 852.417 1139.17 858.492 1139.17 863.416 1144.09 863.416 1150.17Z" stroke="#156082" stroke-width="3.4375" stroke-linecap="butt" stroke-linejoin="round" stroke-miterlimit="10" stroke-opacity="1" fill="#156082" fill-rule="nonzero" fill-opacity="1"/><path d="M1027.42 1095.17C1027.42 1101.24 1022.49 1106.17 1016.42 1106.17 1010.34 1106.17 1005.42 1101.24 1005.42 1095.17 1005.42 1089.09 1010.34 1084.17 1016.42 1084.17 1022.49 1084.17 1027.42 1089.09 1027.42 1095.17Z" stroke="#156082" stroke-width="3.4375" stroke-linecap="butt" stroke-linejoin="round" stroke-miterlimit="10" stroke-opacity="1" fill="#156082" fill-rule="nonzero" fill-opacity="1"/><path d="M1190.42 887.166C1190.42 893.241 1185.49 898.166 1179.42 898.166 1173.34 898.166 1168.42 893.241 1168.42 887.166 1168.42 881.091 1173.34 876.167 1179.42 876.167 1185.49 876.167 1190.42 881.091 1190.42 887.166Z" stroke="#156082" stroke-width="3.4375" stroke-linecap="butt" stroke-linejoin="round" stroke-miterlimit="10" stroke-opacity="1" fill="#156082" fill-rule="nonzero" fill-opacity="1"/><path d="M1354.42 996.166C1354.42 1002.24 1349.49 1007.17 1343.42 1007.17 1337.34 1007.17 1332.42 1002.24 1332.42 996.166 1332.42 990.091 1337.34 985.167 1343.42 985.167 1349.49 985.167 1354.42 990.091 1354.42 996.166Z" stroke="#156082" stroke-width="3.4375" stroke-linecap="butt" stroke-linejoin="round" stroke-miterlimit="10" stroke-opacity="1" fill="#156082" fill-rule="nonzero" fill-opacity="1"/><path d="M1517.42 1124.17C1517.42 1130.24 1512.49 1135.17 1506.42 1135.17 1500.34 1135.17 1495.42 1130.24 1495.42 1124.17 1495.42 1118.09 1500.34 1113.17 1506.42 1113.17 1512.49 1113.17 1517.42 1118.09 1517.42 1124.17Z" stroke="#156082" stroke-width="3.4375" stroke-linecap="butt" stroke-linejoin="round" stroke-miterlimit="10" stroke-opacity="1" fill="#156082" fill-rule="nonzero" fill-opacity="1"/><path d="M1681.42 960.166C1681.42 966.241 1676.49 971.166 1670.42 971.166 1664.34 971.166 1659.42 966.241 1659.42 960.166 1659.42 954.091 1664.34 949.166 1670.42 949.166 1676.49 949.166 1681.42 954.091 1681.42 960.166Z" stroke="#156082" stroke-width="3.4375" stroke-linecap="butt" stroke-linejoin="round" stroke-miterlimit="10" stroke-opacity="1" fill="#156082" fill-rule="nonzero" fill-opacity="1"/><path d="M1845.42 626.166C1845.42 632.241 1840.49 637.166 1834.42 637.166 1828.34 637.166 1823.42 632.241 1823.42 626.166 1823.42 620.091 1828.34 615.167 1834.42 615.167 1840.49 615.167 1845.42 620.091 1845.42 626.166Z" stroke="#156082" stroke-width="3.4375" stroke-linecap="butt" stroke-linejoin="round" stroke-miterlimit="10" stroke-opacity="1" fill="#156082" fill-rule="nonzero" fill-opacity="1"/><path d="M2008.42 1354.17C2008.42 1360.24 2003.49 1365.17 1997.42 1365.17 1991.34 1365.17 1986.42 1360.24 1986.42 1354.17 1986.42 1348.09 1991.34 1343.17 1997.42 1343.17 2003.49 1343.17 2008.42 1348.09 2008.42 1354.17Z" stroke="#156082" stroke-width="3.4375" stroke-linecap="butt" stroke-linejoin="round" stroke-miterlimit="10" stroke-opacity="1" fill="#156082" fill-rule="nonzero" fill-opacity="1"/></g><g><path d="M700.416 419.166C700.416 425.241 695.492 430.166 689.417 430.166 683.342 430.166 678.417 425.241 678.417 419.166 678.417 413.091 683.342 408.166 689.417 408.166 695.492 408.166 700.416 413.091 700.416 419.166Z" stroke="#E97132" stroke-width="3.4375" stroke-linecap="butt" stroke-linejoin="round" stroke-miterlimit="10" stroke-opacity="1" fill="#E97132" fill-rule="nonzero" fill-opacity="1"/><path d="M863.416 564.166C863.416 570.241 858.492 575.166 852.417 575.166 846.342 575.166 841.417 570.241 841.417 564.166 841.417 558.091 846.342 553.166 852.417 553.166 858.492 553.166 863.416 558.091 863.416 564.166Z" stroke="#E97132" stroke-width="3.4375" stroke-linecap="butt" stroke-linejoin="round" stroke-miterlimit="10" stroke-opacity="1" fill="#E97132" fill-rule="nonzero" fill-opacity="1"/><path d="M1027.42 604.166C1027.42 610.241 1022.49 615.166 1016.42 615.166 1010.34 615.166 1005.42 610.241 1005.42 604.166 1005.42 598.091 1010.34 593.167 1016.42 593.167 1022.49 593.167 1027.42 598.091 1027.42 604.166Z" stroke="#E97132" stroke-width="3.4375" stroke-linecap="butt" stroke-linejoin="round" stroke-miterlimit="10" stroke-opacity="1" fill="#E97132" fill-rule="nonzero" fill-opacity="1"/><path d="M1190.42 684.166C1190.42 690.241 1185.49 695.166 1179.42 695.166 1173.34 695.166 1168.42 690.241 1168.42 684.166 1168.42 678.091 1173.34 673.166 1179.42 673.166 1185.49 673.166 1190.42 678.091 1190.42 684.166Z" stroke="#E97132" stroke-width="3.4375" stroke-linecap="butt" stroke-linejoin="round" stroke-miterlimit="10" stroke-opacity="1" fill="#E97132" fill-rule="nonzero" fill-opacity="1"/><path d="M1354.42 660.166C1354.42 666.241 1349.49 671.166 1343.42 671.166 1337.34 671.166 1332.42 666.241 1332.42 660.166 1332.42 654.091 1337.34 649.167 1343.42 649.167 1349.49 649.167 1354.42 654.091 1354.42 660.166Z" stroke="#E97132" stroke-width="3.4375" stroke-linecap="butt" stroke-linejoin="round" stroke-miterlimit="10" stroke-opacity="1" fill="#E97132" fill-rule="nonzero" fill-opacity="1"/><path d="M1517.42 572.166C1517.42 578.241 1512.49 583.166 1506.42 583.166 1500.34 583.166 1495.42 578.241 1495.42 572.166 1495.42 566.091 1500.34 561.167 1506.42 561.167 1512.49 561.167 1517.42 566.091 1517.42 572.166Z" stroke="#E97132" stroke-width="3.4375" stroke-linecap="butt" stroke-linejoin="round" stroke-miterlimit="10" stroke-opacity="1" fill="#E97132" fill-rule="nonzero" fill-opacity="1"/><path d="M1681.42 659.166C1681.42 665.241 1676.49 670.166 1670.42 670.166 1664.34 670.166 1659.42 665.241 1659.42 659.166 1659.42 653.091 1664.34 648.167 1670.42 648.167 1676.49 648.167 1681.42 653.091 1681.42 659.166Z" stroke="#E97132" stroke-width="3.4375" stroke-linecap="butt" stroke-linejoin="round" stroke-miterlimit="10" stroke-opacity="1" fill="#E97132" fill-rule="nonzero" fill-opacity="1"/><path d="M1845.42 517.166C1845.42 523.241 1840.49 528.166 1834.42 528.166 1828.34 528.166 1823.42 523.241 1823.42 517.166 1823.42 511.091 1828.34 506.167 1834.42 506.167 1840.49 506.167 1845.42 511.091 1845.42 517.166Z" stroke="#E97132" stroke-width="3.4375" stroke-linecap="butt" stroke-linejoin="round" stroke-miterlimit="10" stroke-opacity="1" fill="#E97132" fill-rule="nonzero" fill-opacity="1"/><path d="M2008.42 625.166C2008.42 631.241 2003.49 636.166 1997.42 636.166 1991.34 636.166 1986.42 631.241 1986.42 625.166 1986.42 619.091 1991.34 614.167 1997.42 614.167 2003.49 614.167 2008.42 619.091 2008.42 625.166Z" stroke="#E97132" stroke-width="3.4375" stroke-linecap="butt" stroke-linejoin="round" stroke-miterlimit="10" stroke-opacity="1" fill="#E97132" fill-rule="nonzero" fill-opacity="1"/></g><g><text fill="#595959" fill-opacity="1" font-family="Aptos Narrow,Aptos Narrow_MSFontService,sans-serif" font-style="normal" font-variant="normal" font-weight="400" font-stretch="semi-condensed" font-size="41" text-anchor="start" direction="ltr" writing-mode="lr-tb" unicode-bidi="normal" text-decoration="none" transform="matrix(1 0 0 1 2199.24 1475)">0</text></g><g><text fill="#595959" fill-opacity="1" font-family="Aptos Narrow,Aptos Narrow_MSFontService,sans-serif" font-style="normal" font-variant="normal" font-weight="400" font-stretch="semi-condensed" font-size="41" text-anchor="start" direction="ltr" writing-mode="lr-tb" unicode-bidi="normal" text-decoration="none" transform="matrix(1 0 0 1 2199.24 1347)">0.1</text></g><g><text fill="#595959" fill-opacity="1" font-family="Aptos Narrow,Aptos Narrow_MSFontService,sans-serif" font-style="normal" font-variant="normal" font-weight="400" font-stretch="semi-condensed" font-size="41" text-anchor="start" direction="ltr" writing-mode="lr-tb" unicode-bidi="normal" text-decoration="none" transform="matrix(1 0 0 1 2199.24 1220)">0.2</text></g><g><text fill="#595959" fill-opacity="1" font-family="Aptos Narrow,Aptos Narrow_MSFontService,sans-serif" font-style="normal" font-variant="normal" font-weight="400" font-stretch="semi-condensed" font-size="41" text-anchor="start" direction="ltr" writing-mode="lr-tb" unicode-bidi="normal" text-decoration="none" transform="matrix(1 0 0 1 2199.24 1092)">0.3</text></g><g><text fill="#595959" fill-opacity="1" font-family="Aptos Narrow,Aptos Narrow_MSFontService,sans-serif" font-style="normal" font-variant="normal" font-weight="400" font-stretch="semi-condensed" font-size="41" text-anchor="start" direction="ltr" writing-mode="lr-tb" unicode-bidi="normal" text-decoration="none" transform="matrix(1 0 0 1 2199.24 965)">0.4</text></g><g><text fill="#595959" fill-opacity="1" font-family="Aptos Narrow,Aptos Narrow_MSFontService,sans-serif" font-style="normal" font-variant="normal" font-weight="400" font-stretch="semi-condensed" font-size="41" text-anchor="start" direction="ltr" writing-mode="lr-tb" unicode-bidi="normal" text-decoration="none" transform="matrix(1 0 0 1 2199.24 837)">0.5</text></g><g><text fill="#595959" fill-opacity="1" font-family="Aptos Narrow,Aptos Narrow_MSFontService,sans-serif" font-style="normal" font-variant="normal" font-weight="400" font-stretch="semi-condensed" font-size="41" text-anchor="start" direction="ltr" writing-mode="lr-tb" unicode-bidi="normal" text-decoration="none" transform="matrix(1 0 0 1 2199.24 710)">0.6</text></g><g><text fill="#595959" fill-opacity="1" font-family="Aptos Narrow,Aptos Narrow_MSFontService,sans-serif" font-style="normal" font-variant="normal" font-weight="400" font-stretch="semi-condensed" font-size="41" text-anchor="start" direction="ltr" writing-mode="lr-tb" unicode-bidi="normal" text-decoration="none" transform="matrix(1 0 0 1 2199.24 582)">0.7</text></g><g><text fill="#595959" fill-opacity="1" font-family="Aptos Narrow,Aptos Narrow_MSFontService,sans-serif" font-style="normal" font-variant="normal" font-weight="400" font-stretch="semi-condensed" font-size="41" text-anchor="start" direction="ltr" writing-mode="lr-tb" unicode-bidi="normal" text-decoration="none" transform="matrix(1 0 0 1 2199.24 455)">0.8</text></g><g><text fill="#595959" fill-opacity="1" font-family="Aptos Narrow,Aptos Narrow_MSFontService,sans-serif" font-style="normal" font-variant="normal" font-weight="400" font-stretch="semi-condensed" font-size="41" text-anchor="start" direction="ltr" writing-mode="lr-tb" unicode-bidi="normal" text-decoration="none" transform="matrix(1 0 0 1 2199.24 327)">0.9</text></g><g><text fill="#595959" fill-opacity="1" font-family="Aptos Narrow,Aptos Narrow_MSFontService,sans-serif" font-style="normal" font-variant="normal" font-weight="400" font-stretch="semi-condensed" font-size="41" text-anchor="start" direction="ltr" writing-mode="lr-tb" unicode-bidi="normal" text-decoration="none" transform="matrix(1 0 0 1 433.171 1475)">-50</text></g><g><text fill="#595959" fill-opacity="1" font-family="Aptos Narrow,Aptos Narrow_MSFontService,sans-serif" font-style="normal" font-variant="normal" font-weight="400" font-stretch="semi-condensed" font-size="41" text-anchor="start" direction="ltr" writing-mode="lr-tb" unicode-bidi="normal" text-decoration="none" transform="matrix(1 0 0 1 466.698 1311)">0</text></g><g><text fill="#595959" fill-opacity="1" font-family="Aptos Narrow,Aptos Narrow_MSFontService,sans-serif" font-style="normal" font-variant="normal" font-weight="400" font-stretch="semi-condensed" font-size="41" text-anchor="start" direction="ltr" writing-mode="lr-tb" unicode-bidi="normal" text-decoration="none" transform="matrix(1 0 0 1 445.798 1147)">50</text></g><g><text fill="#595959" fill-opacity="1" font-family="Aptos Narrow,Aptos Narrow_MSFontService,sans-serif" font-style="normal" font-variant="normal" font-weight="400" font-stretch="semi-condensed" font-size="41" text-anchor="start" direction="ltr" writing-mode="lr-tb" unicode-bidi="normal" text-decoration="none" transform="matrix(1 0 0 1 424.898 983)">100</text></g><g><text fill="#595959" fill-opacity="1" font-family="Aptos Narrow,Aptos Narrow_MSFontService,sans-serif" font-style="normal" font-variant="normal" font-weight="400" font-stretch="semi-condensed" font-size="41" text-anchor="start" direction="ltr" writing-mode="lr-tb" unicode-bidi="normal" text-decoration="none" transform="matrix(1 0 0 1 424.898 819)">150</text></g><g><text fill="#595959" fill-opacity="1" font-family="Aptos Narrow,Aptos Narrow_MSFontService,sans-serif" font-style="normal" font-variant="normal" font-weight="400" font-stretch="semi-condensed" font-size="41" text-anchor="start" direction="ltr" writing-mode="lr-tb" unicode-bidi="normal" text-decoration="none" transform="matrix(1 0 0 1 424.898 655)">200</text></g><g><text fill="#595959" fill-opacity="1" font-family="Aptos Narrow,Aptos Narrow_MSFontService,sans-serif" font-style="normal" font-variant="normal" font-weight="400" font-stretch="semi-condensed" font-size="41" text-anchor="start" direction="ltr" writing-mode="lr-tb" unicode-bidi="normal" text-decoration="none" transform="matrix(1 0 0 1 424.898 491)">250</text></g><g><text fill="#595959" fill-opacity="1" font-family="Aptos Narrow,Aptos Narrow_MSFontService,sans-serif" font-style="normal" font-variant="normal" font-weight="400" font-stretch="semi-condensed" font-size="41" text-anchor="start" direction="ltr" writing-mode="lr-tb" unicode-bidi="normal" text-decoration="none" transform="matrix(1 0 0 1 424.898 327)">300</text></g><g><text fill="#595959" fill-opacity="1" font-family="Aptos Narrow,Aptos Narrow_MSFontService,sans-serif" font-style="normal" font-variant="normal" font-weight="400" font-stretch="semi-condensed" font-size="41" text-anchor="start" direction="ltr" writing-mode="lr-tb" unicode-bidi="normal" text-decoration="none" transform="matrix(1 0 0 1 515.232 1365)">0</text></g><g><text fill="#595959" fill-opacity="1" font-family="Aptos Narrow,Aptos Narrow_MSFontService,sans-serif" font-style="normal" font-variant="normal" font-weight="400" font-stretch="semi-condensed" font-size="41" text-anchor="start" direction="ltr" writing-mode="lr-tb" unicode-bidi="normal" text-decoration="none" transform="matrix(1 0 0 1 657.879 1365)">100</text></g><g><text fill="#595959" fill-opacity="1" font-family="Aptos Narrow,Aptos Narrow_MSFontService,sans-serif" font-style="normal" font-variant="normal" font-weight="400" font-stretch="semi-condensed" font-size="41" text-anchor="start" direction="ltr" writing-mode="lr-tb" unicode-bidi="normal" text-decoration="none" transform="matrix(1 0 0 1 821.427 1365)">200</text></g><g><text fill="#595959" fill-opacity="1" font-family="Aptos Narrow,Aptos Narrow_MSFontService,sans-serif" font-style="normal" font-variant="normal" font-weight="400" font-stretch="semi-condensed" font-size="41" text-anchor="start" direction="ltr" writing-mode="lr-tb" unicode-bidi="normal" text-decoration="none" transform="matrix(1 0 0 1 984.975 1365)">300</text></g><g><text fill="#595959" fill-opacity="1" font-family="Aptos Narrow,Aptos Narrow_MSFontService,sans-serif" font-style="normal" font-variant="normal" font-weight="400" font-stretch="semi-condensed" font-size="41" text-anchor="start" direction="ltr" writing-mode="lr-tb" unicode-bidi="normal" text-decoration="none" transform="matrix(1 0 0 1 1148.52 1365)">400</text></g><g><text fill="#595959" fill-opacity="1" font-family="Aptos Narrow,Aptos Narrow_MSFontService,sans-serif" font-style="normal" font-variant="normal" font-weight="400" font-stretch="semi-condensed" font-size="41" text-anchor="start" direction="ltr" writing-mode="lr-tb" unicode-bidi="normal" text-decoration="none" transform="matrix(1 0 0 1 1312.07 1365)">500</text></g><g><text fill="#595959" fill-opacity="1" font-family="Aptos Narrow,Aptos Narrow_MSFontService,sans-serif" font-style="normal" font-variant="normal" font-weight="400" font-stretch="semi-condensed" font-size="41" text-anchor="start" direction="ltr" writing-mode="lr-tb" unicode-bidi="normal" text-decoration="none" transform="matrix(1 0 0 1 1475.62 1365)">600</text></g><g><text fill="#595959" fill-opacity="1" font-family="Aptos Narrow,Aptos Narrow_MSFontService,sans-serif" font-style="normal" font-variant="normal" font-weight="400" font-stretch="semi-condensed" font-size="41" text-anchor="start" direction="ltr" writing-mode="lr-tb" unicode-bidi="normal" text-decoration="none" transform="matrix(1 0 0 1 1639.17 1365)">700</text></g><g><text fill="#595959" fill-opacity="1" font-family="Aptos Narrow,Aptos Narrow_MSFontService,sans-serif" font-style="normal" font-variant="normal" font-weight="400" font-stretch="semi-condensed" font-size="41" text-anchor="start" direction="ltr" writing-mode="lr-tb" unicode-bidi="normal" text-decoration="none" transform="matrix(1 0 0 1 1802.71 1365)">800</text></g><g><text fill="#595959" fill-opacity="1" font-family="Aptos Narrow,Aptos Narrow_MSFontService,sans-serif" font-style="normal" font-variant="normal" font-weight="400" font-stretch="semi-condensed" font-size="41" text-anchor="start" direction="ltr" writing-mode="lr-tb" unicode-bidi="normal" text-decoration="none" transform="matrix(1 0 0 1 1966.26 1365)">900</text></g><g><text fill="#595959" fill-opacity="1" font-family="Aptos Narrow,Aptos Narrow_MSFontService,sans-serif" font-style="normal" font-variant="normal" font-weight="400" font-stretch="semi-condensed" font-size="41" text-anchor="start" direction="ltr" writing-mode="lr-tb" unicode-bidi="normal" text-decoration="none" transform="matrix(1 0 0 1 2119.36 1365)">1000</text></g><g><text fill="#595959" fill-opacity="1" font-family="Aptos Narrow,Aptos Narrow_MSFontService,sans-serif" font-style="normal" font-variant="normal" font-weight="400" font-stretch="semi-condensed" font-size="46" text-anchor="start" direction="ltr" writing-mode="lr-tb" unicode-bidi="normal" text-decoration="none" transform="matrix(6.12323e-17 -1 1 6.12323e-17 2308.51 1096)">Registration Error [0</text></g><g><text fill="#595959" fill-opacity="1" font-family="Aptos Narrow,Aptos Narrow_MSFontService,sans-serif" font-style="normal" font-variant="normal" font-weight="400" font-stretch="semi-condensed" font-size="46" text-anchor="start" direction="ltr" writing-mode="lr-tb" unicode-bidi="normal" text-decoration="none" transform="matrix(6.12323e-17 -1 1 6.12323e-17 2308.51 735)">-</text></g><g><text fill="#595959" fill-opacity="1" font-family="Aptos Narrow,Aptos Narrow_MSFontService,sans-serif" font-style="normal" font-variant="normal" font-weight="400" font-stretch="semi-condensed" font-size="46" text-anchor="start" direction="ltr" writing-mode="lr-tb" unicode-bidi="normal" text-decoration="none" transform="matrix(6.12323e-17 -1 1 6.12323e-17 2308.51 721)">1]</text></g><g><text fill="#595959" fill-opacity="1" font-family="Aptos Narrow,Aptos Narrow_MSFontService,sans-serif" font-style="normal" font-variant="normal" font-weight="400" font-stretch="semi-condensed" font-size="46" text-anchor="start" direction="ltr" writing-mode="lr-tb" unicode-bidi="normal" text-decoration="none" transform="matrix(6.12323e-17 -1 1 6.12323e-17 398.2 1197)">Estimated Displacement (meters)</text></g><g><text fill="#595959" fill-opacity="1" font-family="Aptos Narrow,Aptos Narrow_MSFontService,sans-serif" font-style="normal" font-variant="normal" font-weight="400" font-stretch="semi-condensed" font-size="46" text-anchor="start" direction="ltr" writing-mode="lr-tb" unicode-bidi="normal" text-decoration="none" transform="matrix(1 0 0 1 1093.26 1514)">Total Actual Translation (m)</text></g><g><text fill="#595959" fill-opacity="1" font-family="Aptos Narrow,Aptos Narrow_MSFontService,sans-serif" font-style="normal" font-variant="normal" font-weight="400" font-stretch="semi-condensed" font-size="64" text-anchor="start" direction="ltr" writing-mode="lr-tb" unicode-bidi="normal" text-decoration="none" transform="matrix(1 0 0 1 548.717 241)">Fourier</text></g><g><text fill="#595959" fill-opacity="1" font-family="Aptos Narrow,Aptos Narrow_MSFontService,sans-serif" font-style="normal" font-variant="normal" font-weight="400" font-stretch="semi-condensed" font-size="64" text-anchor="start" direction="ltr" writing-mode="lr-tb" unicode-bidi="normal" text-decoration="none" transform="matrix(1 0 0 1 726.619 241)">-</text></g><g><text fill="#595959" fill-opacity="1" font-family="Aptos Narrow,Aptos Narrow_MSFontService,sans-serif" font-style="normal" font-variant="normal" font-weight="400" font-stretch="semi-condensed" font-size="64" text-anchor="start" direction="ltr" writing-mode="lr-tb" unicode-bidi="normal" text-decoration="none" transform="matrix(1 0 0 1 746.258 241)">Mellin Pipeline Translation Estimation (100m intervals)</text></g><g><path d="M739.499 1622.5C739.499 1628.57 734.574 1633.5 728.5 1633.5 722.425 1633.5 717.5 1628.57 717.5 1622.5 717.5 1616.42 722.425 1611.5 728.5 1611.5 734.574 1611.5 739.499 1616.42 739.499 1622.5Z" stroke="#156082" stroke-width="3.4375" stroke-linecap="butt" stroke-linejoin="round" stroke-miterlimit="10" stroke-opacity="1" fill="#156082" fill-rule="nonzero" fill-opacity="1"/></g><g><text fill="#595959" fill-opacity="1" font-family="Aptos Narrow,Aptos Narrow_MSFontService,sans-serif" font-style="normal" font-variant="normal" font-weight="400" font-stretch="semi-condensed" font-size="41" text-anchor="start" direction="ltr" writing-mode="lr-tb" unicode-bidi="normal" text-decoration="none" transform="matrix(1 0 0 1 782.217 1633)">Δ</text></g><g><text fill="#595959" fill-opacity="1" font-family="Aptos Narrow,Aptos Narrow_MSFontService,sans-serif" font-style="normal" font-variant="normal" font-weight="400" font-stretch="semi-condensed" font-size="41" text-anchor="start" direction="ltr" writing-mode="lr-tb" unicode-bidi="normal" text-decoration="none" transform="matrix(1 0 0 1 804.469 1633)">x (estimation)</text></g><g><path d="M1089.5 1622.5 1177.5 1622.5" stroke="#FFC000" stroke-width="9.16667" stroke-linecap="round" stroke-linejoin="round" stroke-miterlimit="10" stroke-opacity="1" fill="none" fill-rule="evenodd"/></g><g><text fill="#595959" fill-opacity="1" font-family="Aptos Narrow,Aptos Narrow_MSFontService,sans-serif" font-style="normal" font-variant="normal" font-weight="400" font-stretch="semi-condensed" font-size="41" text-anchor="start" direction="ltr" writing-mode="lr-tb" unicode-bidi="normal" text-decoration="none" transform="matrix(1 0 0 1 1187.12 1633)">Δ</text></g><g><text fill="#595959" fill-opacity="1" font-family="Aptos Narrow,Aptos Narrow_MSFontService,sans-serif" font-style="normal" font-variant="normal" font-weight="400" font-stretch="semi-condensed" font-size="41" text-anchor="start" direction="ltr" writing-mode="lr-tb" unicode-bidi="normal" text-decoration="none" transform="matrix(1 0 0 1 1209.37 1633)">x reference</text></g><g><path d="M1452.5 1622.5 1540.5 1622.5" stroke="#00B0F0" stroke-width="9.16667" stroke-linecap="round" stroke-linejoin="round" stroke-miterlimit="10" stroke-opacity="1" fill="none" fill-rule="evenodd"/></g><g><text fill="#595959" fill-opacity="1" font-family="Aptos Narrow,Aptos Narrow_MSFontService,sans-serif" font-style="normal" font-variant="normal" font-weight="400" font-stretch="semi-condensed" font-size="41" text-anchor="start" direction="ltr" writing-mode="lr-tb" unicode-bidi="normal" text-decoration="none" transform="matrix(1 0 0 1 1549.29 1633)">Ax average</text></g><g><path d="M1839.5 1622.5C1839.5 1628.57 1834.57 1633.5 1828.5 1633.5 1822.42 1633.5 1817.5 1628.57 1817.5 1622.5 1817.5 1616.42 1822.42 1611.5 1828.5 1611.5 1834.57 1611.5 1839.5 1616.42 1839.5 1622.5Z" stroke="#E97132" stroke-width="3.4375" stroke-linecap="butt" stroke-linejoin="round" stroke-miterlimit="10" stroke-opacity="1" fill="#E97132" fill-rule="nonzero" fill-opacity="1"/></g><g><text fill="#595959" fill-opacity="1" font-family="Aptos Narrow,Aptos Narrow_MSFontService,sans-serif" font-style="normal" font-variant="normal" font-weight="400" font-stretch="semi-condensed" font-size="41" text-anchor="start" direction="ltr" writing-mode="lr-tb" unicode-bidi="normal" text-decoration="none" transform="matrix(1 0 0 1 1882.1 1633)">Δ</text></g><g><text fill="#595959" fill-opacity="1" font-family="Aptos Narrow,Aptos Narrow_MSFontService,sans-serif" font-style="normal" font-variant="normal" font-weight="400" font-stretch="semi-condensed" font-size="41" text-anchor="start" direction="ltr" writing-mode="lr-tb" unicode-bidi="normal" text-decoration="none" transform="matrix(1 0 0 1 1904.35 1633)">x error</text></g><rect x="298.5" y="147.5" width="2081" height="1542" stroke="#D9D9D9" stroke-width="3.4375" stroke-linecap="butt" stroke-linejoin="round" stroke-miterlimit="10" stroke-opacity="1" fill="none"/></g></g></svg>